<?xml version="1.0" encoding="UTF-8" standalone="no"?>
<svg width="857px" height="208px" viewBox="0 0 857 208" version="1.1" xmlns="http://www.w3.org/2000/svg" xmlns:xlink="http://www.w3.org/1999/xlink">
    <!-- Generator: Sketch 40.3 (33839) - http://www.bohemiancoding.com/sketch -->
    <title>Slice 1</title>
    <desc>Created with Sketch.</desc>
    <defs></defs>
    <g id="Page-1" stroke="none" stroke-width="1" fill="none" fill-rule="evenodd">
        <g id="banner" transform="translate(0.000000, 2.000000)">
            <path d="M98.082375,146.808844 L99.209375,146.808844 C99.3307089,146.808844 99.4310413,146.839177 99.510375,146.899844 C99.5897087,146.960511 99.6433749,147.03751 99.671375,147.130844 L101.743375,154.102844 C101.780709,154.228844 101.814542,154.364176 101.844875,154.508844 C101.875208,154.653511 101.904375,154.805176 101.932375,154.963844 C101.965042,154.805176 101.997708,154.652344 102.030375,154.505344 C102.063042,154.358343 102.100375,154.224178 102.142375,154.102844 L104.501375,147.130844 C104.529375,147.05151 104.584208,146.978011 104.665875,146.910344 C104.747542,146.842677 104.846708,146.808844 104.963375,146.808844 L105.355375,146.808844 C105.476709,146.808844 105.575875,146.839177 105.652875,146.899844 C105.729875,146.960511 105.784708,147.03751 105.817375,147.130844 L108.162375,154.102844 C108.246375,154.345512 108.321041,154.623176 108.386375,154.935844 C108.414375,154.781843 108.440042,154.634844 108.463375,154.494844 C108.486708,154.354843 108.517041,154.224178 108.554375,154.102844 L110.633375,147.130844 C110.656708,147.046843 110.709208,146.972177 110.790875,146.906844 C110.872542,146.84151 110.971708,146.808844 111.088375,146.808844 L112.145375,146.808844 L109.016375,156.839844 L107.798375,156.839844 L105.257375,149.188844 C105.206041,149.044176 105.159375,148.876178 105.117375,148.684844 C105.094042,148.778178 105.071875,148.86801 105.050875,148.954344 C105.029875,149.040678 105.007708,149.118843 104.984375,149.188844 L102.429375,156.839844 L101.211375,156.839844 L98.082375,146.808844 Z M123.149375,146.808844 L123.149375,147.914844 L118.333375,147.914844 L118.333375,151.246844 L122.232375,151.246844 L122.232375,152.310844 L118.333375,152.310844 L118.333375,155.733844 L123.149375,155.733844 L123.149375,156.839844 L116.968375,156.839844 L116.968375,146.808844 L123.149375,146.808844 Z M128.602375,156.839844 L128.602375,146.808844 L131.801375,146.808844 C132.417378,146.808844 132.948206,146.86951 133.393875,146.990844 C133.839544,147.112178 134.205874,147.284843 134.492875,147.508844 C134.779876,147.732845 134.992208,148.007009 135.129875,148.331344 C135.267542,148.655679 135.336375,149.020842 135.336375,149.426844 C135.336375,149.674178 135.297875,149.912176 135.220875,150.140844 C135.143875,150.369512 135.027209,150.581843 134.870875,150.777844 C134.714541,150.973845 134.518543,151.148843 134.282875,151.302844 C134.047207,151.456845 133.77071,151.582843 133.453375,151.680844 C134.186045,151.825511 134.73904,152.089175 135.112375,152.471844 C135.48571,152.854512 135.672375,153.358507 135.672375,153.983844 C135.672375,154.408513 135.594209,154.795842 135.437875,155.145844 C135.281541,155.495845 135.052877,155.796842 134.751875,156.048844 C134.450873,156.300845 134.082211,156.495676 133.645875,156.633344 C133.209539,156.771011 132.711378,156.839844 132.151375,156.839844 L128.602375,156.839844 Z M129.960375,152.268844 L129.960375,155.761844 L132.130375,155.761844 C132.51771,155.761844 132.850207,155.717511 133.127875,155.628844 C133.405543,155.540177 133.634207,155.415345 133.813875,155.254344 C133.993543,155.093343 134.125375,154.902012 134.209375,154.680344 C134.293375,154.458676 134.335375,154.214845 134.335375,153.948844 C134.335375,153.430841 134.15221,153.021345 133.785875,152.720344 C133.41954,152.419342 132.865379,152.268844 132.123375,152.268844 L129.960375,152.268844 Z M129.960375,151.302844 L131.752375,151.302844 C132.135044,151.302844 132.466374,151.260844 132.746375,151.176844 C133.026376,151.092843 133.258541,150.976178 133.442875,150.826844 C133.627209,150.67751 133.763708,150.496678 133.852375,150.284344 C133.941042,150.072009 133.985375,149.839845 133.985375,149.587844 C133.985375,148.999841 133.808043,148.568178 133.453375,148.292844 C133.098707,148.017509 132.548045,147.879844 131.801375,147.879844 L129.960375,147.879844 L129.960375,151.302844 Z M156.056375,151.827844 C156.056375,152.579181 155.937376,153.262841 155.699375,153.878844 C155.461374,154.494847 155.125377,155.022175 154.691375,155.460844 C154.257373,155.899513 153.737045,156.239009 153.130375,156.479344 C152.523705,156.719678 151.851712,156.839844 151.114375,156.839844 L147.362375,156.839844 L147.362375,146.808844 L151.114375,146.808844 C151.851712,146.808844 152.523705,146.929009 153.130375,147.169344 C153.737045,147.409678 154.257373,147.750342 154.691375,148.191344 C155.125377,148.632346 155.461374,149.160841 155.699375,149.776844 C155.937376,150.392847 156.056375,151.076507 156.056375,151.827844 L156.056375,151.827844 Z M154.663375,151.827844 C154.663375,151.211841 154.579376,150.66118 154.411375,150.175844 C154.243374,149.690508 154.005377,149.279845 153.697375,148.943844 C153.389373,148.607842 153.016044,148.351178 152.577375,148.173844 C152.138706,147.99651 151.651044,147.907844 151.114375,147.907844 L148.727375,147.907844 L148.727375,155.740844 L151.114375,155.740844 C151.651044,155.740844 152.138706,155.652178 152.577375,155.474844 C153.016044,155.29751 153.389373,155.042012 153.697375,154.708344 C154.005377,154.374675 154.243374,153.96518 154.411375,153.479844 C154.579376,152.994508 154.663375,152.443847 154.663375,151.827844 L154.663375,151.827844 Z M167.585375,146.808844 L167.585375,147.914844 L162.769375,147.914844 L162.769375,151.246844 L166.668375,151.246844 L166.668375,152.310844 L162.769375,152.310844 L162.769375,155.733844 L167.585375,155.733844 L167.585375,156.839844 L161.404375,156.839844 L161.404375,146.808844 L167.585375,146.808844 Z M178.176375,148.376844 C178.134375,148.446844 178.090042,148.499344 178.043375,148.534344 C177.996708,148.569344 177.936042,148.586844 177.861375,148.586844 C177.782041,148.586844 177.689876,148.547177 177.584875,148.467844 C177.479874,148.38851 177.346876,148.301011 177.185875,148.205344 C177.024874,148.109677 176.831209,148.022177 176.604875,147.942844 C176.378541,147.86351 176.104377,147.823844 175.782375,147.823844 C175.47904,147.823844 175.21071,147.864677 174.977375,147.946344 C174.74404,148.028011 174.549209,148.138843 174.392875,148.278844 C174.236541,148.418844 174.118709,148.583343 174.039375,148.772344 C173.960041,148.961345 173.920375,149.165509 173.920375,149.384844 C173.920375,149.664845 173.989208,149.897009 174.126875,150.081344 C174.264542,150.265678 174.446541,150.423176 174.672875,150.553844 C174.899209,150.684511 175.155874,150.797677 175.442875,150.893344 C175.729876,150.989011 176.023873,151.088177 176.324875,151.190844 C176.625877,151.293511 176.919874,151.40901 177.206875,151.537344 C177.493876,151.665678 177.750541,151.827843 177.976875,152.023844 C178.203209,152.219845 178.385208,152.460176 178.522875,152.744844 C178.660542,153.029512 178.729375,153.379508 178.729375,153.794844 C178.729375,154.233513 178.654709,154.645342 178.505375,155.030344 C178.356041,155.415346 178.137876,155.750176 177.850875,156.034844 C177.563874,156.319512 177.211544,156.54351 176.793875,156.706844 C176.376206,156.870178 175.901378,156.951844 175.369375,156.951844 C174.720705,156.951844 174.129211,156.834012 173.594875,156.598344 C173.060539,156.362676 172.604377,156.044179 172.226375,155.642844 L172.618375,154.998844 C172.655709,154.94751 172.701208,154.904344 172.754875,154.869344 C172.808542,154.834344 172.868041,154.816844 172.933375,154.816844 C173.031375,154.816844 173.143374,154.869343 173.269375,154.974344 C173.395376,155.079344 173.552874,155.194843 173.741875,155.320844 C173.930876,155.446844 174.15954,155.562343 174.427875,155.667344 C174.69621,155.772344 175.02404,155.824844 175.411375,155.824844 C175.733377,155.824844 176.020374,155.780511 176.272375,155.691844 C176.524376,155.603177 176.737874,155.478345 176.912875,155.317344 C177.087876,155.156343 177.222041,154.963845 177.315375,154.739844 C177.408709,154.515843 177.455375,154.266178 177.455375,153.990844 C177.455375,153.687509 177.386542,153.439011 177.248875,153.245344 C177.111208,153.051676 176.930376,152.889511 176.706375,152.758844 C176.482374,152.628176 176.226876,152.517344 175.939875,152.426344 C175.652874,152.335343 175.358877,152.242011 175.057875,152.146344 C174.756873,152.050677 174.462876,151.939844 174.175875,151.813844 C173.888874,151.687843 173.633376,151.524511 173.409375,151.323844 C173.185374,151.123176 173.004542,150.872345 172.866875,150.571344 C172.729208,150.270342 172.660375,149.898179 172.660375,149.454844 C172.660375,149.100175 172.729208,148.757179 172.866875,148.425844 C173.004542,148.094509 173.20404,147.800512 173.465375,147.543844 C173.72671,147.287176 174.049873,147.081845 174.434875,146.927844 C174.819877,146.773843 175.262039,146.696844 175.761375,146.696844 C176.321378,146.696844 176.832373,146.78551 177.294375,146.962844 C177.756377,147.140178 178.16004,147.396842 178.505375,147.732844 L178.176375,148.376844 Z M185.568375,156.839844 L184.210375,156.839844 L184.210375,146.808844 L185.568375,146.808844 L185.568375,156.839844 Z M196.229375,155.852844 C196.500043,155.852844 196.748541,155.840011 196.974875,155.814344 C197.201209,155.788677 197.414707,155.750177 197.615375,155.698844 C197.816043,155.64751 198.005041,155.585677 198.182375,155.513344 C198.359709,155.44101 198.537041,155.358178 198.714375,155.264844 L198.714375,153.052844 L197.160375,153.052844 C197.071708,153.052844 197.000542,153.027177 196.946875,152.975844 C196.893208,152.92451 196.866375,152.861511 196.866375,152.786844 L196.866375,152.016844 L199.946375,152.016844 L199.946375,155.866844 C199.694374,156.048845 199.431876,156.20751 199.158875,156.342844 C198.885874,156.478178 198.59421,156.591343 198.283875,156.682344 C197.97354,156.773344 197.641043,156.84101 197.286375,156.885344 C196.931707,156.929677 196.54671,156.951844 196.131375,156.951844 C195.403371,156.951844 194.736045,156.827012 194.129375,156.577344 C193.522705,156.327676 193.000044,155.977679 192.561375,155.527344 C192.122706,155.077008 191.780876,154.536847 191.535875,153.906844 C191.290874,153.276841 191.168375,152.583848 191.168375,151.827844 C191.168375,151.062507 191.28854,150.364847 191.528875,149.734844 C191.76921,149.104841 192.112206,148.564679 192.557875,148.114344 C193.003544,147.664008 193.542539,147.315178 194.174875,147.067844 C194.807211,146.820509 195.515371,146.696844 196.299375,146.696844 C196.696044,146.696844 197.064707,146.72601 197.405375,146.784344 C197.746043,146.842677 198.062207,146.926677 198.353875,147.036344 C198.645543,147.146011 198.91504,147.27901 199.162375,147.435344 C199.40971,147.591678 199.640707,147.767843 199.855375,147.963844 L199.470375,148.579844 C199.391041,148.705844 199.288376,148.768844 199.162375,148.768844 C199.087708,148.768844 199.006042,148.743177 198.917375,148.691844 C198.800708,148.62651 198.670042,148.547178 198.525375,148.453844 C198.380708,148.36051 198.204543,148.270678 197.996875,148.184344 C197.789207,148.09801 197.54421,148.024511 197.261875,147.963844 C196.97954,147.903177 196.64471,147.872844 196.257375,147.872844 C195.692706,147.872844 195.181711,147.965009 194.724375,148.149344 C194.267039,148.333678 193.877377,148.597342 193.555375,148.940344 C193.233373,149.283345 192.986043,149.698675 192.813375,150.186344 C192.640707,150.674013 192.554375,151.221174 192.554375,151.827844 C192.554375,152.462514 192.644207,153.028341 192.823875,153.525344 C193.003543,154.022346 193.256707,154.443509 193.583375,154.788844 C193.910043,155.134179 194.297373,155.397843 194.745375,155.579844 C195.193377,155.761845 195.688039,155.852844 196.229375,155.852844 L196.229375,155.852844 Z M206.232375,146.808844 C206.353709,146.808844 206.443541,146.82401 206.501875,146.854344 C206.560209,146.884677 206.626708,146.94651 206.701375,147.039844 L212.511375,154.599844 C212.497375,154.47851 212.488042,154.360678 212.483375,154.246344 C212.478708,154.13201 212.476375,154.021178 212.476375,153.913844 L212.476375,146.808844 L213.666375,146.808844 L213.666375,156.839844 L212.980375,156.839844 C212.873041,156.839844 212.783209,156.821177 212.710875,156.783844 C212.638541,156.74651 212.567375,156.683511 212.497375,156.594844 L206.694375,149.041844 C206.703708,149.158511 206.710708,149.272843 206.715375,149.384844 C206.720042,149.496844 206.722375,149.59951 206.722375,149.692844 L206.722375,156.839844 L205.532375,156.839844 L205.532375,146.808844 L206.232375,146.808844 Z M231.999375,146.808844 L231.999375,147.914844 L227.183375,147.914844 L227.183375,151.421844 L231.299375,151.421844 L231.299375,152.527844 L227.183375,152.527844 L227.183375,156.839844 L225.818375,156.839844 L225.818375,146.808844 L231.999375,146.808844 Z M241.141375,155.761844 C241.55671,155.761844 241.927707,155.691844 242.254375,155.551844 C242.581043,155.411843 242.857541,155.215845 243.083875,154.963844 C243.310209,154.711842 243.482874,154.410845 243.601875,154.060844 C243.720876,153.710842 243.780375,153.325846 243.780375,152.905844 L243.780375,146.808844 L245.131375,146.808844 L245.131375,152.905844 C245.131375,153.484513 245.039209,154.021175 244.854875,154.515844 C244.670541,155.010513 244.406877,155.438675 244.063875,155.800344 C243.720873,156.162012 243.302044,156.445509 242.807375,156.650844 C242.312706,156.856178 241.757378,156.958844 241.141375,156.958844 C240.525372,156.958844 239.970044,156.856178 239.475375,156.650844 C238.980706,156.445509 238.56071,156.162012 238.215375,155.800344 C237.87004,155.438675 237.605209,155.010513 237.420875,154.515844 C237.236541,154.021175 237.144375,153.484513 237.144375,152.905844 L237.144375,146.808844 L238.495375,146.808844 L238.495375,152.898844 C238.495375,153.318846 238.554874,153.703842 238.673875,154.053844 C238.792876,154.403845 238.965541,154.704842 239.191875,154.956844 C239.418209,155.208845 239.695873,155.40601 240.024875,155.548344 C240.353877,155.690678 240.72604,155.761844 241.141375,155.761844 L241.141375,155.761844 Z M251.662375,146.808844 C251.783709,146.808844 251.873541,146.82401 251.931875,146.854344 C251.990209,146.884677 252.056708,146.94651 252.131375,147.039844 L257.941375,154.599844 C257.927375,154.47851 257.918042,154.360678 257.913375,154.246344 C257.908708,154.13201 257.906375,154.021178 257.906375,153.913844 L257.906375,146.808844 L259.096375,146.808844 L259.096375,156.839844 L258.410375,156.839844 C258.303041,156.839844 258.213209,156.821177 258.140875,156.783844 C258.068541,156.74651 257.997375,156.683511 257.927375,156.594844 L252.124375,149.041844 C252.133708,149.158511 252.140708,149.272843 252.145375,149.384844 C252.150042,149.496844 252.152375,149.59951 252.152375,149.692844 L252.152375,156.839844 L250.962375,156.839844 L250.962375,146.808844 L251.662375,146.808844 Z M273.740375,151.827844 C273.740375,152.579181 273.621376,153.262841 273.383375,153.878844 C273.145374,154.494847 272.809377,155.022175 272.375375,155.460844 C271.941373,155.899513 271.421045,156.239009 270.814375,156.479344 C270.207705,156.719678 269.535712,156.839844 268.798375,156.839844 L265.046375,156.839844 L265.046375,146.808844 L268.798375,146.808844 C269.535712,146.808844 270.207705,146.929009 270.814375,147.169344 C271.421045,147.409678 271.941373,147.750342 272.375375,148.191344 C272.809377,148.632346 273.145374,149.160841 273.383375,149.776844 C273.621376,150.392847 273.740375,151.076507 273.740375,151.827844 L273.740375,151.827844 Z M272.347375,151.827844 C272.347375,151.211841 272.263376,150.66118 272.095375,150.175844 C271.927374,149.690508 271.689377,149.279845 271.381375,148.943844 C271.073373,148.607842 270.700044,148.351178 270.261375,148.173844 C269.822706,147.99651 269.335044,147.907844 268.798375,147.907844 L266.411375,147.907844 L266.411375,155.740844 L268.798375,155.740844 C269.335044,155.740844 269.822706,155.652178 270.261375,155.474844 C270.700044,155.29751 271.073373,155.042012 271.381375,154.708344 C271.689377,154.374675 271.927374,153.96518 272.095375,153.479844 C272.263376,152.994508 272.347375,152.443847 272.347375,151.827844 L272.347375,151.827844 Z M287.047375,156.839844 L285.997375,156.839844 C285.876041,156.839844 285.778042,156.809511 285.703375,156.748844 C285.628708,156.688177 285.572709,156.611178 285.535375,156.517844 L284.597375,154.095844 L280.096375,154.095844 L279.158375,156.517844 C279.125708,156.601844 279.069709,156.67651 278.990375,156.741844 C278.911041,156.807177 278.813042,156.839844 278.696375,156.839844 L277.646375,156.839844 L281.657375,146.808844 L283.036375,146.808844 L287.047375,156.839844 Z M280.474375,153.115844 L284.219375,153.115844 L282.644375,149.034844 C282.541708,148.782842 282.441375,148.467846 282.343375,148.089844 C282.292041,148.281178 282.241875,148.457343 282.192875,148.618344 C282.143875,148.779345 282.096042,148.92051 282.049375,149.041844 L280.474375,153.115844 Z M296.749375,153.213844 C296.814709,153.325844 296.871875,153.443676 296.920875,153.567344 C296.969875,153.691011 297.017708,153.815843 297.064375,153.941844 C297.111042,153.811176 297.160041,153.686344 297.211375,153.567344 C297.262709,153.448343 297.321041,153.328178 297.386375,153.206844 L300.781375,147.039844 C300.842042,146.93251 300.905041,146.867177 300.970375,146.843844 C301.035709,146.82051 301.129041,146.808844 301.250375,146.808844 L302.251375,146.808844 L302.251375,156.839844 L301.061375,156.839844 L301.061375,149.468844 C301.061375,149.370843 301.063708,149.265844 301.068375,149.153844 C301.073042,149.041843 301.080042,148.927511 301.089375,148.810844 L297.652375,155.082844 C297.535708,155.292845 297.372376,155.397844 297.162375,155.397844 L296.966375,155.397844 C296.756374,155.397844 296.593042,155.292845 296.476375,155.082844 L292.962375,148.789844 C292.976375,148.911178 292.986875,149.030176 292.993875,149.146844 C293.000875,149.263511 293.004375,149.370843 293.004375,149.468844 L293.004375,156.839844 L291.814375,156.839844 L291.814375,146.808844 L292.815375,146.808844 C292.936709,146.808844 293.030041,146.82051 293.095375,146.843844 C293.160709,146.867177 293.223708,146.93251 293.284375,147.039844 L296.749375,153.213844 Z M314.375375,146.808844 L314.375375,147.914844 L309.559375,147.914844 L309.559375,151.246844 L313.458375,151.246844 L313.458375,152.310844 L309.559375,152.310844 L309.559375,155.733844 L314.375375,155.733844 L314.375375,156.839844 L308.194375,156.839844 L308.194375,146.808844 L314.375375,146.808844 Z M320.528375,146.808844 C320.649709,146.808844 320.739541,146.82401 320.797875,146.854344 C320.856209,146.884677 320.922708,146.94651 320.997375,147.039844 L326.807375,154.599844 C326.793375,154.47851 326.784042,154.360678 326.779375,154.246344 C326.774708,154.13201 326.772375,154.021178 326.772375,153.913844 L326.772375,146.808844 L327.962375,146.808844 L327.962375,156.839844 L327.276375,156.839844 C327.169041,156.839844 327.079209,156.821177 327.006875,156.783844 C326.934541,156.74651 326.863375,156.683511 326.793375,156.594844 L320.990375,149.041844 C320.999708,149.158511 321.006708,149.272843 321.011375,149.384844 C321.016042,149.496844 321.018375,149.59951 321.018375,149.692844 L321.018375,156.839844 L319.828375,156.839844 L319.828375,146.808844 L320.528375,146.808844 Z M340.744375,146.808844 L340.744375,147.949844 L337.503375,147.949844 L337.503375,156.839844 L336.145375,156.839844 L336.145375,147.949844 L332.890375,147.949844 L332.890375,146.808844 L340.744375,146.808844 Z M353.001375,156.839844 L351.951375,156.839844 C351.830041,156.839844 351.732042,156.809511 351.657375,156.748844 C351.582708,156.688177 351.526709,156.611178 351.489375,156.517844 L350.551375,154.095844 L346.050375,154.095844 L345.112375,156.517844 C345.079708,156.601844 345.023709,156.67651 344.944375,156.741844 C344.865041,156.807177 344.767042,156.839844 344.650375,156.839844 L343.600375,156.839844 L347.611375,146.808844 L348.990375,146.808844 L353.001375,156.839844 Z M346.428375,153.115844 L350.173375,153.115844 L348.598375,149.034844 C348.495708,148.782842 348.395375,148.467846 348.297375,148.089844 C348.246041,148.281178 348.195875,148.457343 348.146875,148.618344 C348.097875,148.779345 348.050042,148.92051 348.003375,149.041844 L346.428375,153.115844 Z M359.126375,155.698844 L363.466375,155.698844 L363.466375,156.839844 L357.768375,156.839844 L357.768375,146.808844 L359.126375,146.808844 L359.126375,155.698844 Z M373.602375,148.376844 C373.560375,148.446844 373.516042,148.499344 373.469375,148.534344 C373.422708,148.569344 373.362042,148.586844 373.287375,148.586844 C373.208041,148.586844 373.115876,148.547177 373.010875,148.467844 C372.905874,148.38851 372.772876,148.301011 372.611875,148.205344 C372.450874,148.109677 372.257209,148.022177 372.030875,147.942844 C371.804541,147.86351 371.530377,147.823844 371.208375,147.823844 C370.90504,147.823844 370.636709,147.864677 370.403375,147.946344 C370.17004,148.028011 369.975209,148.138843 369.818875,148.278844 C369.662541,148.418844 369.544709,148.583343 369.465375,148.772344 C369.386041,148.961345 369.346375,149.165509 369.346375,149.384844 C369.346375,149.664845 369.415208,149.897009 369.552875,150.081344 C369.690542,150.265678 369.872541,150.423176 370.098875,150.553844 C370.325209,150.684511 370.581874,150.797677 370.868875,150.893344 C371.155876,150.989011 371.449873,151.088177 371.750875,151.190844 C372.051877,151.293511 372.345874,151.40901 372.632875,151.537344 C372.919876,151.665678 373.176541,151.827843 373.402875,152.023844 C373.629209,152.219845 373.811208,152.460176 373.948875,152.744844 C374.086542,153.029512 374.155375,153.379508 374.155375,153.794844 C374.155375,154.233513 374.080709,154.645342 373.931375,155.030344 C373.782041,155.415346 373.563876,155.750176 373.276875,156.034844 C372.989874,156.319512 372.637544,156.54351 372.219875,156.706844 C371.802206,156.870178 371.327378,156.951844 370.795375,156.951844 C370.146705,156.951844 369.555211,156.834012 369.020875,156.598344 C368.486539,156.362676 368.030377,156.044179 367.652375,155.642844 L368.044375,154.998844 C368.081709,154.94751 368.127208,154.904344 368.180875,154.869344 C368.234542,154.834344 368.294041,154.816844 368.359375,154.816844 C368.457375,154.816844 368.569374,154.869343 368.695375,154.974344 C368.821376,155.079344 368.978874,155.194843 369.167875,155.320844 C369.356876,155.446844 369.58554,155.562343 369.853875,155.667344 C370.12221,155.772344 370.45004,155.824844 370.837375,155.824844 C371.159377,155.824844 371.446374,155.780511 371.698375,155.691844 C371.950376,155.603177 372.163874,155.478345 372.338875,155.317344 C372.513876,155.156343 372.648041,154.963845 372.741375,154.739844 C372.834709,154.515843 372.881375,154.266178 372.881375,153.990844 C372.881375,153.687509 372.812542,153.439011 372.674875,153.245344 C372.537208,153.051676 372.356376,152.889511 372.132375,152.758844 C371.908374,152.628176 371.652876,152.517344 371.365875,152.426344 C371.078874,152.335343 370.784877,152.242011 370.483875,152.146344 C370.182873,152.050677 369.888876,151.939844 369.601875,151.813844 C369.314874,151.687843 369.059376,151.524511 368.835375,151.323844 C368.611374,151.123176 368.430542,150.872345 368.292875,150.571344 C368.155208,150.270342 368.086375,149.898179 368.086375,149.454844 C368.086375,149.100175 368.155208,148.757179 368.292875,148.425844 C368.430542,148.094509 368.63004,147.800512 368.891375,147.543844 C369.15271,147.287176 369.475873,147.081845 369.860875,146.927844 C370.245877,146.773843 370.688039,146.696844 371.187375,146.696844 C371.747378,146.696844 372.258373,146.78551 372.720375,146.962844 C373.182377,147.140178 373.58604,147.396842 373.931375,147.732844 L373.602375,148.376844 Z M393.839375,156.839844 L392.789375,156.839844 C392.668041,156.839844 392.570042,156.809511 392.495375,156.748844 C392.420708,156.688177 392.364709,156.611178 392.327375,156.517844 L391.389375,154.095844 L386.888375,154.095844 L385.950375,156.517844 C385.917708,156.601844 385.861709,156.67651 385.782375,156.741844 C385.703041,156.807177 385.605042,156.839844 385.488375,156.839844 L384.438375,156.839844 L388.449375,146.808844 L389.828375,146.808844 L393.839375,156.839844 Z M387.266375,153.115844 L391.011375,153.115844 L389.436375,149.034844 C389.333708,148.782842 389.233375,148.467846 389.135375,148.089844 C389.084041,148.281178 389.033875,148.457343 388.984875,148.618344 C388.935875,148.779345 388.888042,148.92051 388.841375,149.041844 L387.266375,153.115844 Z M399.306375,146.808844 C399.427709,146.808844 399.517541,146.82401 399.575875,146.854344 C399.634209,146.884677 399.700708,146.94651 399.775375,147.039844 L405.585375,154.599844 C405.571375,154.47851 405.562042,154.360678 405.557375,154.246344 C405.552708,154.13201 405.550375,154.021178 405.550375,153.913844 L405.550375,146.808844 L406.740375,146.808844 L406.740375,156.839844 L406.054375,156.839844 C405.947041,156.839844 405.857209,156.821177 405.784875,156.783844 C405.712541,156.74651 405.641375,156.683511 405.571375,156.594844 L399.768375,149.041844 C399.777708,149.158511 399.784708,149.272843 399.789375,149.384844 C399.794042,149.496844 399.796375,149.59951 399.796375,149.692844 L399.796375,156.839844 L398.606375,156.839844 L398.606375,146.808844 L399.306375,146.808844 Z M421.384375,151.827844 C421.384375,152.579181 421.265376,153.262841 421.027375,153.878844 C420.789374,154.494847 420.453377,155.022175 420.019375,155.460844 C419.585373,155.899513 419.065045,156.239009 418.458375,156.479344 C417.851705,156.719678 417.179712,156.839844 416.442375,156.839844 L412.690375,156.839844 L412.690375,146.808844 L416.442375,146.808844 C417.179712,146.808844 417.851705,146.929009 418.458375,147.169344 C419.065045,147.409678 419.585373,147.750342 420.019375,148.191344 C420.453377,148.632346 420.789374,149.160841 421.027375,149.776844 C421.265376,150.392847 421.384375,151.076507 421.384375,151.827844 L421.384375,151.827844 Z M419.991375,151.827844 C419.991375,151.211841 419.907376,150.66118 419.739375,150.175844 C419.571374,149.690508 419.333377,149.279845 419.025375,148.943844 C418.717373,148.607842 418.344044,148.351178 417.905375,148.173844 C417.466706,147.99651 416.979044,147.907844 416.442375,147.907844 L414.055375,147.907844 L414.055375,155.740844 L416.442375,155.740844 C416.979044,155.740844 417.466706,155.652178 417.905375,155.474844 C418.344044,155.29751 418.717373,155.042012 419.025375,154.708344 C419.333377,154.374675 419.571374,153.96518 419.739375,153.479844 C419.907376,152.994508 419.991375,152.443847 419.991375,151.827844 L419.991375,151.827844 Z M438.072375,148.376844 C438.030375,148.446844 437.986042,148.499344 437.939375,148.534344 C437.892708,148.569344 437.832042,148.586844 437.757375,148.586844 C437.678041,148.586844 437.585876,148.547177 437.480875,148.467844 C437.375874,148.38851 437.242876,148.301011 437.081875,148.205344 C436.920874,148.109677 436.727209,148.022177 436.500875,147.942844 C436.274541,147.86351 436.000377,147.823844 435.678375,147.823844 C435.37504,147.823844 435.106709,147.864677 434.873375,147.946344 C434.64004,148.028011 434.445209,148.138843 434.288875,148.278844 C434.132541,148.418844 434.014709,148.583343 433.935375,148.772344 C433.856041,148.961345 433.816375,149.165509 433.816375,149.384844 C433.816375,149.664845 433.885208,149.897009 434.022875,150.081344 C434.160542,150.265678 434.342541,150.423176 434.568875,150.553844 C434.795209,150.684511 435.051874,150.797677 435.338875,150.893344 C435.625876,150.989011 435.919873,151.088177 436.220875,151.190844 C436.521877,151.293511 436.815874,151.40901 437.102875,151.537344 C437.389876,151.665678 437.646541,151.827843 437.872875,152.023844 C438.099209,152.219845 438.281208,152.460176 438.418875,152.744844 C438.556542,153.029512 438.625375,153.379508 438.625375,153.794844 C438.625375,154.233513 438.550709,154.645342 438.401375,155.030344 C438.252041,155.415346 438.033876,155.750176 437.746875,156.034844 C437.459874,156.319512 437.107544,156.54351 436.689875,156.706844 C436.272206,156.870178 435.797378,156.951844 435.265375,156.951844 C434.616705,156.951844 434.025211,156.834012 433.490875,156.598344 C432.956539,156.362676 432.500377,156.044179 432.122375,155.642844 L432.514375,154.998844 C432.551709,154.94751 432.597208,154.904344 432.650875,154.869344 C432.704542,154.834344 432.764041,154.816844 432.829375,154.816844 C432.927375,154.816844 433.039374,154.869343 433.165375,154.974344 C433.291376,155.079344 433.448874,155.194843 433.637875,155.320844 C433.826876,155.446844 434.05554,155.562343 434.323875,155.667344 C434.59221,155.772344 434.92004,155.824844 435.307375,155.824844 C435.629377,155.824844 435.916374,155.780511 436.168375,155.691844 C436.420376,155.603177 436.633874,155.478345 436.808875,155.317344 C436.983876,155.156343 437.118041,154.963845 437.211375,154.739844 C437.304709,154.515843 437.351375,154.266178 437.351375,153.990844 C437.351375,153.687509 437.282542,153.439011 437.144875,153.245344 C437.007208,153.051676 436.826376,152.889511 436.602375,152.758844 C436.378374,152.628176 436.122876,152.517344 435.835875,152.426344 C435.548874,152.335343 435.254877,152.242011 434.953875,152.146344 C434.652873,152.050677 434.358876,151.939844 434.071875,151.813844 C433.784874,151.687843 433.529376,151.524511 433.305375,151.323844 C433.081374,151.123176 432.900542,150.872345 432.762875,150.571344 C432.625208,150.270342 432.556375,149.898179 432.556375,149.454844 C432.556375,149.100175 432.625208,148.757179 432.762875,148.425844 C432.900542,148.094509 433.10004,147.800512 433.361375,147.543844 C433.62271,147.287176 433.945873,147.081845 434.330875,146.927844 C434.715877,146.773843 435.158039,146.696844 435.657375,146.696844 C436.217378,146.696844 436.728373,146.78551 437.190375,146.962844 C437.652377,147.140178 438.05604,147.396842 438.401375,147.732844 L438.072375,148.376844 Z M451.988375,156.839844 L450.623375,156.839844 L450.623375,152.275844 L445.219375,152.275844 L445.219375,156.839844 L443.854375,156.839844 L443.854375,146.808844 L445.219375,146.808844 L445.219375,151.281844 L450.623375,151.281844 L450.623375,146.808844 L451.988375,146.808844 L451.988375,156.839844 Z M467.255375,151.827844 C467.255375,152.579181 467.136376,153.268674 466.898375,153.896344 C466.660374,154.524014 466.324377,155.064175 465.890375,155.516844 C465.456373,155.969513 464.934878,156.320676 464.325875,156.570344 C463.716872,156.820012 463.043712,156.944844 462.306375,156.944844 C461.569038,156.944844 460.897045,156.820012 460.290375,156.570344 C459.683705,156.320676 459.163377,155.969513 458.729375,155.516844 C458.295373,155.064175 457.959376,154.524014 457.721375,153.896344 C457.483374,153.268674 457.364375,152.579181 457.364375,151.827844 C457.364375,151.076507 457.483374,150.387014 457.721375,149.759344 C457.959376,149.131674 458.295373,148.590346 458.729375,148.135344 C459.163377,147.680341 459.683705,147.326845 460.290375,147.074844 C460.897045,146.822842 461.569038,146.696844 462.306375,146.696844 C463.043712,146.696844 463.716872,146.822842 464.325875,147.074844 C464.934878,147.326845 465.456373,147.680341 465.890375,148.135344 C466.324377,148.590346 466.660374,149.131674 466.898375,149.759344 C467.136376,150.387014 467.255375,151.076507 467.255375,151.827844 L467.255375,151.827844 Z M465.862375,151.827844 C465.862375,151.211841 465.778376,150.658846 465.610375,150.168844 C465.442374,149.678841 465.204377,149.264679 464.896375,148.926344 C464.588373,148.588009 464.215044,148.327845 463.776375,148.145844 C463.337706,147.963843 462.847711,147.872844 462.306375,147.872844 C461.769706,147.872844 461.282044,147.963843 460.843375,148.145844 C460.404706,148.327845 460.03021,148.588009 459.719875,148.926344 C459.40954,149.264679 459.170376,149.678841 459.002375,150.168844 C458.834374,150.658846 458.750375,151.211841 458.750375,151.827844 C458.750375,152.443847 458.834374,152.995675 459.002375,153.483344 C459.170376,153.971013 459.40954,154.384009 459.719875,154.722344 C460.03021,155.060679 460.404706,155.319676 460.843375,155.499344 C461.282044,155.679011 461.769706,155.768844 462.306375,155.768844 C462.847711,155.768844 463.337706,155.679011 463.776375,155.499344 C464.215044,155.319676 464.588373,155.060679 464.896375,154.722344 C465.204377,154.384009 465.442374,153.971013 465.610375,153.483344 C465.778376,152.995675 465.862375,152.443847 465.862375,151.827844 L465.862375,151.827844 Z M474.101375,152.653844 L474.101375,156.839844 L472.750375,156.839844 L472.750375,146.808844 L475.585375,146.808844 C476.220045,146.808844 476.768373,146.87301 477.230375,147.001344 C477.692377,147.129678 478.073873,147.315176 478.374875,147.557844 C478.675877,147.800512 478.898708,148.093342 479.043375,148.436344 C479.188042,148.779345 479.260375,149.163175 479.260375,149.587844 C479.260375,149.942512 479.204376,150.273842 479.092375,150.581844 C478.980374,150.889845 478.818209,151.166343 478.605875,151.411344 C478.393541,151.656345 478.134543,151.865176 477.828875,152.037844 C477.523207,152.210511 477.17671,152.341177 476.789375,152.429844 C476.957376,152.527844 477.106708,152.670176 477.237375,152.856844 L480.163375,156.839844 L478.959375,156.839844 C478.71204,156.839844 478.530042,156.744178 478.413375,156.552844 L475.809375,152.968844 C475.730041,152.856843 475.643709,152.776344 475.550375,152.727344 C475.457041,152.678344 475.317043,152.653844 475.130375,152.653844 L474.101375,152.653844 Z M474.101375,151.666844 L475.522375,151.666844 C475.919044,151.666844 476.267873,151.619011 476.568875,151.523344 C476.869877,151.427677 477.121874,151.292345 477.324875,151.117344 C477.527876,150.942343 477.680708,150.733512 477.783375,150.490844 C477.886042,150.248176 477.937375,149.979845 477.937375,149.685844 C477.937375,149.088507 477.74021,148.638179 477.345875,148.334844 C476.95154,148.031509 476.364712,147.879844 475.585375,147.879844 L474.101375,147.879844 L474.101375,151.666844 Z M491.594375,146.808844 L491.594375,147.949844 L488.353375,147.949844 L488.353375,156.839844 L486.995375,156.839844 L486.995375,147.949844 L483.740375,147.949844 L483.740375,146.808844 L491.594375,146.808844 Z M502.906375,154.767844 C502.981042,154.767844 503.048708,154.798177 503.109375,154.858844 L503.641375,155.439844 C503.230706,155.915846 502.732545,156.286842 502.146875,156.552844 C501.561205,156.818845 500.855379,156.951844 500.029375,156.951844 C499.306038,156.951844 498.650378,156.827012 498.062375,156.577344 C497.474372,156.327676 496.97271,155.977679 496.557375,155.527344 C496.14204,155.077008 495.820043,154.536847 495.591375,153.906844 C495.362707,153.276841 495.248375,152.583848 495.248375,151.827844 C495.248375,151.07184 495.370874,150.378847 495.615875,149.748844 C495.860876,149.118841 496.205039,148.577513 496.648375,148.124844 C497.091711,147.672175 497.622539,147.321012 498.240875,147.071344 C498.859211,146.821676 499.541705,146.696844 500.288375,146.696844 C501.025712,146.696844 501.661539,146.811176 502.195875,147.039844 C502.730211,147.268512 503.20504,147.578842 503.620375,147.970844 L503.179375,148.593844 C503.146708,148.640511 503.109375,148.67901 503.067375,148.709344 C503.025375,148.739677 502.964709,148.754844 502.885375,148.754844 C502.824708,148.754844 502.760542,148.732677 502.692875,148.688344 C502.625208,148.64401 502.544709,148.589177 502.451375,148.523844 C502.358041,148.45851 502.248376,148.388511 502.122375,148.313844 C501.996374,148.239177 501.847043,148.169177 501.674375,148.103844 C501.501707,148.03851 501.301043,147.983677 501.072375,147.939344 C500.843707,147.89501 500.580043,147.872844 500.281375,147.872844 C499.744706,147.872844 499.253544,147.965009 498.807875,148.149344 C498.362206,148.333678 497.978377,148.596175 497.656375,148.936844 C497.334373,149.277512 497.083543,149.692841 496.903875,150.182844 C496.724207,150.672846 496.634375,151.221174 496.634375,151.827844 C496.634375,152.45318 496.724207,153.010841 496.903875,153.500844 C497.083543,153.990846 497.32854,154.405009 497.638875,154.743344 C497.94921,155.081679 498.316706,155.33951 498.741375,155.516844 C499.166044,155.694178 499.623373,155.782844 500.113375,155.782844 C500.412043,155.782844 500.680374,155.765344 500.918375,155.730344 C501.156376,155.695344 501.376874,155.640511 501.579875,155.565844 C501.782876,155.491177 501.971874,155.396678 502.146875,155.282344 C502.321876,155.16801 502.498041,155.031511 502.675375,154.872844 C502.754709,154.802843 502.831708,154.767844 502.906375,154.767844 L502.906375,154.767844 Z M512.825375,155.761844 C513.24071,155.761844 513.611707,155.691844 513.938375,155.551844 C514.265043,155.411843 514.541541,155.215845 514.767875,154.963844 C514.994209,154.711842 515.166874,154.410845 515.285875,154.060844 C515.404876,153.710842 515.464375,153.325846 515.464375,152.905844 L515.464375,146.808844 L516.815375,146.808844 L516.815375,152.905844 C516.815375,153.484513 516.723209,154.021175 516.538875,154.515844 C516.354541,155.010513 516.090877,155.438675 515.747875,155.800344 C515.404873,156.162012 514.986044,156.445509 514.491375,156.650844 C513.996706,156.856178 513.441378,156.958844 512.825375,156.958844 C512.209372,156.958844 511.654044,156.856178 511.159375,156.650844 C510.664706,156.445509 510.24471,156.162012 509.899375,155.800344 C509.55404,155.438675 509.289209,155.010513 509.104875,154.515844 C508.920541,154.021175 508.828375,153.484513 508.828375,152.905844 L508.828375,146.808844 L510.179375,146.808844 L510.179375,152.898844 C510.179375,153.318846 510.238874,153.703842 510.357875,154.053844 C510.476876,154.403845 510.649541,154.704842 510.875875,154.956844 C511.102209,155.208845 511.379873,155.40601 511.708875,155.548344 C512.037877,155.690678 512.41004,155.761844 512.825375,155.761844 L512.825375,155.761844 Z M529.478375,146.808844 L529.478375,147.949844 L526.237375,147.949844 L526.237375,156.839844 L524.879375,156.839844 L524.879375,147.949844 L521.624375,147.949844 L521.624375,146.808844 L529.478375,146.808844 Z M539.544375,148.376844 C539.502375,148.446844 539.458042,148.499344 539.411375,148.534344 C539.364708,148.569344 539.304042,148.586844 539.229375,148.586844 C539.150041,148.586844 539.057876,148.547177 538.952875,148.467844 C538.847874,148.38851 538.714876,148.301011 538.553875,148.205344 C538.392874,148.109677 538.199209,148.022177 537.972875,147.942844 C537.746541,147.86351 537.472377,147.823844 537.150375,147.823844 C536.84704,147.823844 536.578709,147.864677 536.345375,147.946344 C536.11204,148.028011 535.917209,148.138843 535.760875,148.278844 C535.604541,148.418844 535.486709,148.583343 535.407375,148.772344 C535.328041,148.961345 535.288375,149.165509 535.288375,149.384844 C535.288375,149.664845 535.357208,149.897009 535.494875,150.081344 C535.632542,150.265678 535.814541,150.423176 536.040875,150.553844 C536.267209,150.684511 536.523874,150.797677 536.810875,150.893344 C537.097876,150.989011 537.391873,151.088177 537.692875,151.190844 C537.993877,151.293511 538.287874,151.40901 538.574875,151.537344 C538.861876,151.665678 539.118541,151.827843 539.344875,152.023844 C539.571209,152.219845 539.753208,152.460176 539.890875,152.744844 C540.028542,153.029512 540.097375,153.379508 540.097375,153.794844 C540.097375,154.233513 540.022709,154.645342 539.873375,155.030344 C539.724041,155.415346 539.505876,155.750176 539.218875,156.034844 C538.931874,156.319512 538.579544,156.54351 538.161875,156.706844 C537.744206,156.870178 537.269378,156.951844 536.737375,156.951844 C536.088705,156.951844 535.497211,156.834012 534.962875,156.598344 C534.428539,156.362676 533.972377,156.044179 533.594375,155.642844 L533.986375,154.998844 C534.023709,154.94751 534.069208,154.904344 534.122875,154.869344 C534.176542,154.834344 534.236041,154.816844 534.301375,154.816844 C534.399375,154.816844 534.511374,154.869343 534.637375,154.974344 C534.763376,155.079344 534.920874,155.194843 535.109875,155.320844 C535.298876,155.446844 535.52754,155.562343 535.795875,155.667344 C536.06421,155.772344 536.39204,155.824844 536.779375,155.824844 C537.101377,155.824844 537.388374,155.780511 537.640375,155.691844 C537.892376,155.603177 538.105874,155.478345 538.280875,155.317344 C538.455876,155.156343 538.590041,154.963845 538.683375,154.739844 C538.776709,154.515843 538.823375,154.266178 538.823375,153.990844 C538.823375,153.687509 538.754542,153.439011 538.616875,153.245344 C538.479208,153.051676 538.298376,152.889511 538.074375,152.758844 C537.850374,152.628176 537.594876,152.517344 537.307875,152.426344 C537.020874,152.335343 536.726877,152.242011 536.425875,152.146344 C536.124873,152.050677 535.830876,151.939844 535.543875,151.813844 C535.256874,151.687843 535.001376,151.524511 534.777375,151.323844 C534.553374,151.123176 534.372542,150.872345 534.234875,150.571344 C534.097208,150.270342 534.028375,149.898179 534.028375,149.454844 C534.028375,149.100175 534.097208,148.757179 534.234875,148.425844 C534.372542,148.094509 534.57204,147.800512 534.833375,147.543844 C535.09471,147.287176 535.417873,147.081845 535.802875,146.927844 C536.187877,146.773843 536.630039,146.696844 537.129375,146.696844 C537.689378,146.696844 538.200373,146.78551 538.662375,146.962844 C539.124377,147.140178 539.52804,147.396842 539.873375,147.732844 L539.544375,148.376844 Z M557.709375,146.808844 L557.709375,147.914844 L552.893375,147.914844 L552.893375,151.421844 L557.009375,151.421844 L557.009375,152.527844 L552.893375,152.527844 L552.893375,156.839844 L551.528375,156.839844 L551.528375,146.808844 L557.709375,146.808844 Z M572.269375,151.827844 C572.269375,152.579181 572.150376,153.268674 571.912375,153.896344 C571.674374,154.524014 571.338377,155.064175 570.904375,155.516844 C570.470373,155.969513 569.948878,156.320676 569.339875,156.570344 C568.730872,156.820012 568.057712,156.944844 567.320375,156.944844 C566.583038,156.944844 565.911045,156.820012 565.304375,156.570344 C564.697705,156.320676 564.177377,155.969513 563.743375,155.516844 C563.309373,155.064175 562.973376,154.524014 562.735375,153.896344 C562.497374,153.268674 562.378375,152.579181 562.378375,151.827844 C562.378375,151.076507 562.497374,150.387014 562.735375,149.759344 C562.973376,149.131674 563.309373,148.590346 563.743375,148.135344 C564.177377,147.680341 564.697705,147.326845 565.304375,147.074844 C565.911045,146.822842 566.583038,146.696844 567.320375,146.696844 C568.057712,146.696844 568.730872,146.822842 569.339875,147.074844 C569.948878,147.326845 570.470373,147.680341 570.904375,148.135344 C571.338377,148.590346 571.674374,149.131674 571.912375,149.759344 C572.150376,150.387014 572.269375,151.076507 572.269375,151.827844 L572.269375,151.827844 Z M570.876375,151.827844 C570.876375,151.211841 570.792376,150.658846 570.624375,150.168844 C570.456374,149.678841 570.218377,149.264679 569.910375,148.926344 C569.602373,148.588009 569.229044,148.327845 568.790375,148.145844 C568.351706,147.963843 567.861711,147.872844 567.320375,147.872844 C566.783706,147.872844 566.296044,147.963843 565.857375,148.145844 C565.418706,148.327845 565.04421,148.588009 564.733875,148.926344 C564.42354,149.264679 564.184376,149.678841 564.016375,150.168844 C563.848374,150.658846 563.764375,151.211841 563.764375,151.827844 C563.764375,152.443847 563.848374,152.995675 564.016375,153.483344 C564.184376,153.971013 564.42354,154.384009 564.733875,154.722344 C565.04421,155.060679 565.418706,155.319676 565.857375,155.499344 C566.296044,155.679011 566.783706,155.768844 567.320375,155.768844 C567.861711,155.768844 568.351706,155.679011 568.790375,155.499344 C569.229044,155.319676 569.602373,155.060679 569.910375,154.722344 C570.218377,154.384009 570.456374,153.971013 570.624375,153.483344 C570.792376,152.995675 570.876375,152.443847 570.876375,151.827844 L570.876375,151.827844 Z M579.115375,152.653844 L579.115375,156.839844 L577.764375,156.839844 L577.764375,146.808844 L580.599375,146.808844 C581.234045,146.808844 581.782373,146.87301 582.244375,147.001344 C582.706377,147.129678 583.087873,147.315176 583.388875,147.557844 C583.689877,147.800512 583.912708,148.093342 584.057375,148.436344 C584.202042,148.779345 584.274375,149.163175 584.274375,149.587844 C584.274375,149.942512 584.218376,150.273842 584.106375,150.581844 C583.994374,150.889845 583.832209,151.166343 583.619875,151.411344 C583.407541,151.656345 583.148543,151.865176 582.842875,152.037844 C582.537207,152.210511 582.19071,152.341177 581.803375,152.429844 C581.971376,152.527844 582.120708,152.670176 582.251375,152.856844 L585.177375,156.839844 L583.973375,156.839844 C583.72604,156.839844 583.544042,156.744178 583.427375,156.552844 L580.823375,152.968844 C580.744041,152.856843 580.657709,152.776344 580.564375,152.727344 C580.471041,152.678344 580.331043,152.653844 580.144375,152.653844 L579.115375,152.653844 Z M579.115375,151.666844 L580.536375,151.666844 C580.933044,151.666844 581.281873,151.619011 581.582875,151.523344 C581.883877,151.427677 582.135874,151.292345 582.338875,151.117344 C582.541876,150.942343 582.694708,150.733512 582.797375,150.490844 C582.900042,150.248176 582.951375,149.979845 582.951375,149.685844 C582.951375,149.088507 582.75421,148.638179 582.359875,148.334844 C581.96554,148.031509 581.378712,147.879844 580.599375,147.879844 L579.115375,147.879844 L579.115375,151.666844 Z M597.042375,146.808844 C597.163709,146.808844 597.253541,146.82401 597.311875,146.854344 C597.370209,146.884677 597.436708,146.94651 597.511375,147.039844 L603.321375,154.599844 C603.307375,154.47851 603.298042,154.360678 603.293375,154.246344 C603.288708,154.13201 603.286375,154.021178 603.286375,153.913844 L603.286375,146.808844 L604.476375,146.808844 L604.476375,156.839844 L603.790375,156.839844 C603.683041,156.839844 603.593209,156.821177 603.520875,156.783844 C603.448541,156.74651 603.377375,156.683511 603.307375,156.594844 L597.504375,149.041844 C597.513708,149.158511 597.520708,149.272843 597.525375,149.384844 C597.530042,149.496844 597.532375,149.59951 597.532375,149.692844 L597.532375,156.839844 L596.342375,156.839844 L596.342375,146.808844 L597.042375,146.808844 Z M619.743375,151.827844 C619.743375,152.579181 619.624376,153.268674 619.386375,153.896344 C619.148374,154.524014 618.812377,155.064175 618.378375,155.516844 C617.944373,155.969513 617.422878,156.320676 616.813875,156.570344 C616.204872,156.820012 615.531712,156.944844 614.794375,156.944844 C614.057038,156.944844 613.385045,156.820012 612.778375,156.570344 C612.171705,156.320676 611.651377,155.969513 611.217375,155.516844 C610.783373,155.064175 610.447376,154.524014 610.209375,153.896344 C609.971374,153.268674 609.852375,152.579181 609.852375,151.827844 C609.852375,151.076507 609.971374,150.387014 610.209375,149.759344 C610.447376,149.131674 610.783373,148.590346 611.217375,148.135344 C611.651377,147.680341 612.171705,147.326845 612.778375,147.074844 C613.385045,146.822842 614.057038,146.696844 614.794375,146.696844 C615.531712,146.696844 616.204872,146.822842 616.813875,147.074844 C617.422878,147.326845 617.944373,147.680341 618.378375,148.135344 C618.812377,148.590346 619.148374,149.131674 619.386375,149.759344 C619.624376,150.387014 619.743375,151.076507 619.743375,151.827844 L619.743375,151.827844 Z M618.350375,151.827844 C618.350375,151.211841 618.266376,150.658846 618.098375,150.168844 C617.930374,149.678841 617.692377,149.264679 617.384375,148.926344 C617.076373,148.588009 616.703044,148.327845 616.264375,148.145844 C615.825706,147.963843 615.335711,147.872844 614.794375,147.872844 C614.257706,147.872844 613.770044,147.963843 613.331375,148.145844 C612.892706,148.327845 612.51821,148.588009 612.207875,148.926344 C611.89754,149.264679 611.658376,149.678841 611.490375,150.168844 C611.322374,150.658846 611.238375,151.211841 611.238375,151.827844 C611.238375,152.443847 611.322374,152.995675 611.490375,153.483344 C611.658376,153.971013 611.89754,154.384009 612.207875,154.722344 C612.51821,155.060679 612.892706,155.319676 613.331375,155.499344 C613.770044,155.679011 614.257706,155.768844 614.794375,155.768844 C615.335711,155.768844 615.825706,155.679011 616.264375,155.499344 C616.703044,155.319676 617.076373,155.060679 617.384375,154.722344 C617.692377,154.384009 617.930374,153.971013 618.098375,153.483344 C618.266376,152.995675 618.350375,152.443847 618.350375,151.827844 L618.350375,151.827844 Z M625.798375,146.808844 C625.919709,146.808844 626.009541,146.82401 626.067875,146.854344 C626.126209,146.884677 626.192708,146.94651 626.267375,147.039844 L632.077375,154.599844 C632.063375,154.47851 632.054042,154.360678 632.049375,154.246344 C632.044708,154.13201 632.042375,154.021178 632.042375,153.913844 L632.042375,146.808844 L633.232375,146.808844 L633.232375,156.839844 L632.546375,156.839844 C632.439041,156.839844 632.349209,156.821177 632.276875,156.783844 C632.204541,156.74651 632.133375,156.683511 632.063375,156.594844 L626.260375,149.041844 C626.269708,149.158511 626.276708,149.272843 626.281375,149.384844 C626.286042,149.496844 626.288375,149.59951 626.288375,149.692844 L626.288375,156.839844 L625.098375,156.839844 L625.098375,146.808844 L625.798375,146.808844 Z M638.664375,152.114844 L642.122375,152.114844 L642.122375,153.171844 L638.664375,153.171844 L638.664375,152.114844 Z M656.234375,151.827844 C656.234375,152.579181 656.115376,153.262841 655.877375,153.878844 C655.639374,154.494847 655.303377,155.022175 654.869375,155.460844 C654.435373,155.899513 653.915045,156.239009 653.308375,156.479344 C652.701705,156.719678 652.029712,156.839844 651.292375,156.839844 L647.540375,156.839844 L647.540375,146.808844 L651.292375,146.808844 C652.029712,146.808844 652.701705,146.929009 653.308375,147.169344 C653.915045,147.409678 654.435373,147.750342 654.869375,148.191344 C655.303377,148.632346 655.639374,149.160841 655.877375,149.776844 C656.115376,150.392847 656.234375,151.076507 656.234375,151.827844 L656.234375,151.827844 Z M654.841375,151.827844 C654.841375,151.211841 654.757376,150.66118 654.589375,150.175844 C654.421374,149.690508 654.183377,149.279845 653.875375,148.943844 C653.567373,148.607842 653.194044,148.351178 652.755375,148.173844 C652.316706,147.99651 651.829044,147.907844 651.292375,147.907844 L648.905375,147.907844 L648.905375,155.740844 L651.292375,155.740844 C651.829044,155.740844 652.316706,155.652178 652.755375,155.474844 C653.194044,155.29751 653.567373,155.042012 653.875375,154.708344 C654.183377,154.374675 654.421374,153.96518 654.589375,153.479844 C654.757376,152.994508 654.841375,152.443847 654.841375,151.827844 L654.841375,151.827844 Z M667.763375,146.808844 L667.763375,147.914844 L662.947375,147.914844 L662.947375,151.246844 L666.846375,151.246844 L666.846375,152.310844 L662.947375,152.310844 L662.947375,155.733844 L667.763375,155.733844 L667.763375,156.839844 L661.582375,156.839844 L661.582375,146.808844 L667.763375,146.808844 Z M678.354375,148.376844 C678.312375,148.446844 678.268042,148.499344 678.221375,148.534344 C678.174708,148.569344 678.114042,148.586844 678.039375,148.586844 C677.960041,148.586844 677.867876,148.547177 677.762875,148.467844 C677.657874,148.38851 677.524876,148.301011 677.363875,148.205344 C677.202874,148.109677 677.009209,148.022177 676.782875,147.942844 C676.556541,147.86351 676.282377,147.823844 675.960375,147.823844 C675.65704,147.823844 675.38871,147.864677 675.155375,147.946344 C674.922041,148.028011 674.727209,148.138843 674.570875,148.278844 C674.414541,148.418844 674.296709,148.583343 674.217375,148.772344 C674.138041,148.961345 674.098375,149.165509 674.098375,149.384844 C674.098375,149.664845 674.167208,149.897009 674.304875,150.081344 C674.442542,150.265678 674.624541,150.423176 674.850875,150.553844 C675.077209,150.684511 675.333874,150.797677 675.620875,150.893344 C675.907876,150.989011 676.201873,151.088177 676.502875,151.190844 C676.803877,151.293511 677.097874,151.40901 677.384875,151.537344 C677.671876,151.665678 677.928541,151.827843 678.154875,152.023844 C678.381209,152.219845 678.563208,152.460176 678.700875,152.744844 C678.838542,153.029512 678.907375,153.379508 678.907375,153.794844 C678.907375,154.233513 678.832709,154.645342 678.683375,155.030344 C678.534041,155.415346 678.315876,155.750176 678.028875,156.034844 C677.741874,156.319512 677.389544,156.54351 676.971875,156.706844 C676.554206,156.870178 676.079378,156.951844 675.547375,156.951844 C674.898705,156.951844 674.307211,156.834012 673.772875,156.598344 C673.238539,156.362676 672.782377,156.044179 672.404375,155.642844 L672.796375,154.998844 C672.833709,154.94751 672.879208,154.904344 672.932875,154.869344 C672.986542,154.834344 673.046041,154.816844 673.111375,154.816844 C673.209375,154.816844 673.321374,154.869343 673.447375,154.974344 C673.573376,155.079344 673.730874,155.194843 673.919875,155.320844 C674.108876,155.446844 674.33754,155.562343 674.605875,155.667344 C674.87421,155.772344 675.20204,155.824844 675.589375,155.824844 C675.911377,155.824844 676.198374,155.780511 676.450375,155.691844 C676.702376,155.603177 676.915874,155.478345 677.090875,155.317344 C677.265876,155.156343 677.400041,154.963845 677.493375,154.739844 C677.586709,154.515843 677.633375,154.266178 677.633375,153.990844 C677.633375,153.687509 677.564542,153.439011 677.426875,153.245344 C677.289208,153.051676 677.108376,152.889511 676.884375,152.758844 C676.660374,152.628176 676.404876,152.517344 676.117875,152.426344 C675.830874,152.335343 675.536877,152.242011 675.235875,152.146344 C674.934873,152.050677 674.640876,151.939844 674.353875,151.813844 C674.066874,151.687843 673.811376,151.524511 673.587375,151.323844 C673.363374,151.123176 673.182542,150.872345 673.044875,150.571344 C672.907208,150.270342 672.838375,149.898179 672.838375,149.454844 C672.838375,149.100175 672.907208,148.757179 673.044875,148.425844 C673.182542,148.094509 673.38204,147.800512 673.643375,147.543844 C673.90471,147.287176 674.227873,147.081845 674.612875,146.927844 C674.997877,146.773843 675.440039,146.696844 675.939375,146.696844 C676.499378,146.696844 677.010373,146.78551 677.472375,146.962844 C677.934377,147.140178 678.33804,147.396842 678.683375,147.732844 L678.354375,148.376844 Z M685.746375,156.839844 L684.388375,156.839844 L684.388375,146.808844 L685.746375,146.808844 L685.746375,156.839844 Z M696.407375,155.852844 C696.678043,155.852844 696.926541,155.840011 697.152875,155.814344 C697.379209,155.788677 697.592707,155.750177 697.793375,155.698844 C697.994043,155.64751 698.183041,155.585677 698.360375,155.513344 C698.537709,155.44101 698.715041,155.358178 698.892375,155.264844 L698.892375,153.052844 L697.338375,153.052844 C697.249708,153.052844 697.178542,153.027177 697.124875,152.975844 C697.071208,152.92451 697.044375,152.861511 697.044375,152.786844 L697.044375,152.016844 L700.124375,152.016844 L700.124375,155.866844 C699.872374,156.048845 699.609876,156.20751 699.336875,156.342844 C699.063874,156.478178 698.77221,156.591343 698.461875,156.682344 C698.15154,156.773344 697.819043,156.84101 697.464375,156.885344 C697.109707,156.929677 696.72471,156.951844 696.309375,156.951844 C695.581371,156.951844 694.914045,156.827012 694.307375,156.577344 C693.700705,156.327676 693.178044,155.977679 692.739375,155.527344 C692.300706,155.077008 691.958876,154.536847 691.713875,153.906844 C691.468874,153.276841 691.346375,152.583848 691.346375,151.827844 C691.346375,151.062507 691.46654,150.364847 691.706875,149.734844 C691.94721,149.104841 692.290206,148.564679 692.735875,148.114344 C693.181544,147.664008 693.720539,147.315178 694.352875,147.067844 C694.985211,146.820509 695.693371,146.696844 696.477375,146.696844 C696.874044,146.696844 697.242707,146.72601 697.583375,146.784344 C697.924043,146.842677 698.240207,146.926677 698.531875,147.036344 C698.823543,147.146011 699.09304,147.27901 699.340375,147.435344 C699.58771,147.591678 699.818707,147.767843 700.033375,147.963844 L699.648375,148.579844 C699.569041,148.705844 699.466376,148.768844 699.340375,148.768844 C699.265708,148.768844 699.184042,148.743177 699.095375,148.691844 C698.978708,148.62651 698.848042,148.547178 698.703375,148.453844 C698.558708,148.36051 698.382543,148.270678 698.174875,148.184344 C697.967207,148.09801 697.72221,148.024511 697.439875,147.963844 C697.15754,147.903177 696.82271,147.872844 696.435375,147.872844 C695.870706,147.872844 695.359711,147.965009 694.902375,148.149344 C694.445039,148.333678 694.055377,148.597342 693.733375,148.940344 C693.411373,149.283345 693.164043,149.698675 692.991375,150.186344 C692.818707,150.674013 692.732375,151.221174 692.732375,151.827844 C692.732375,152.462514 692.822207,153.028341 693.001875,153.525344 C693.181543,154.022346 693.434707,154.443509 693.761375,154.788844 C694.088043,155.134179 694.475373,155.397843 694.923375,155.579844 C695.371377,155.761845 695.866039,155.852844 696.407375,155.852844 L696.407375,155.852844 Z M706.410375,146.808844 C706.531709,146.808844 706.621541,146.82401 706.679875,146.854344 C706.738209,146.884677 706.804708,146.94651 706.879375,147.039844 L712.689375,154.599844 C712.675375,154.47851 712.666042,154.360678 712.661375,154.246344 C712.656708,154.13201 712.654375,154.021178 712.654375,153.913844 L712.654375,146.808844 L713.844375,146.808844 L713.844375,156.839844 L713.158375,156.839844 C713.051041,156.839844 712.961209,156.821177 712.888875,156.783844 C712.816541,156.74651 712.745375,156.683511 712.675375,156.594844 L706.872375,149.041844 C706.881708,149.158511 706.888708,149.272843 706.893375,149.384844 C706.898042,149.496844 706.900375,149.59951 706.900375,149.692844 L706.900375,156.839844 L705.710375,156.839844 L705.710375,146.808844 L706.410375,146.808844 Z M725.975375,146.808844 L725.975375,147.914844 L721.159375,147.914844 L721.159375,151.246844 L725.058375,151.246844 L725.058375,152.310844 L721.159375,152.310844 L721.159375,155.733844 L725.975375,155.733844 L725.975375,156.839844 L719.794375,156.839844 L719.794375,146.808844 L725.975375,146.808844 Z M732.919375,152.653844 L732.919375,156.839844 L731.568375,156.839844 L731.568375,146.808844 L734.403375,146.808844 C735.038045,146.808844 735.586373,146.87301 736.048375,147.001344 C736.510377,147.129678 736.891873,147.315176 737.192875,147.557844 C737.493877,147.800512 737.716708,148.093342 737.861375,148.436344 C738.006042,148.779345 738.078375,149.163175 738.078375,149.587844 C738.078375,149.942512 738.022376,150.273842 737.910375,150.581844 C737.798374,150.889845 737.636209,151.166343 737.423875,151.411344 C737.211541,151.656345 736.952543,151.865176 736.646875,152.037844 C736.341207,152.210511 735.99471,152.341177 735.607375,152.429844 C735.775376,152.527844 735.924708,152.670176 736.055375,152.856844 L738.981375,156.839844 L737.777375,156.839844 C737.53004,156.839844 737.348042,156.744178 737.231375,156.552844 L734.627375,152.968844 C734.548041,152.856843 734.461709,152.776344 734.368375,152.727344 C734.275041,152.678344 734.135043,152.653844 733.948375,152.653844 L732.919375,152.653844 Z M732.919375,151.666844 L734.340375,151.666844 C734.737044,151.666844 735.085873,151.619011 735.386875,151.523344 C735.687877,151.427677 735.939874,151.292345 736.142875,151.117344 C736.345876,150.942343 736.498708,150.733512 736.601375,150.490844 C736.704042,150.248176 736.755375,149.979845 736.755375,149.685844 C736.755375,149.088507 736.55821,148.638179 736.163875,148.334844 C735.76954,148.031509 735.182712,147.879844 734.403375,147.879844 L732.919375,147.879844 L732.919375,151.666844 Z M749.082375,148.376844 C749.040375,148.446844 748.996042,148.499344 748.949375,148.534344 C748.902708,148.569344 748.842042,148.586844 748.767375,148.586844 C748.688041,148.586844 748.595876,148.547177 748.490875,148.467844 C748.385874,148.38851 748.252876,148.301011 748.091875,148.205344 C747.930874,148.109677 747.737209,148.022177 747.510875,147.942844 C747.284541,147.86351 747.010377,147.823844 746.688375,147.823844 C746.38504,147.823844 746.116709,147.864677 745.883375,147.946344 C745.65004,148.028011 745.455209,148.138843 745.298875,148.278844 C745.142541,148.418844 745.024709,148.583343 744.945375,148.772344 C744.866041,148.961345 744.826375,149.165509 744.826375,149.384844 C744.826375,149.664845 744.895208,149.897009 745.032875,150.081344 C745.170542,150.265678 745.352541,150.423176 745.578875,150.553844 C745.805209,150.684511 746.061874,150.797677 746.348875,150.893344 C746.635876,150.989011 746.929873,151.088177 747.230875,151.190844 C747.531877,151.293511 747.825874,151.40901 748.112875,151.537344 C748.399876,151.665678 748.656541,151.827843 748.882875,152.023844 C749.109209,152.219845 749.291208,152.460176 749.428875,152.744844 C749.566542,153.029512 749.635375,153.379508 749.635375,153.794844 C749.635375,154.233513 749.560709,154.645342 749.411375,155.030344 C749.262041,155.415346 749.043876,155.750176 748.756875,156.034844 C748.469874,156.319512 748.117544,156.54351 747.699875,156.706844 C747.282206,156.870178 746.807378,156.951844 746.275375,156.951844 C745.626705,156.951844 745.035211,156.834012 744.500875,156.598344 C743.966539,156.362676 743.510377,156.044179 743.132375,155.642844 L743.524375,154.998844 C743.561709,154.94751 743.607208,154.904344 743.660875,154.869344 C743.714542,154.834344 743.774041,154.816844 743.839375,154.816844 C743.937375,154.816844 744.049374,154.869343 744.175375,154.974344 C744.301376,155.079344 744.458874,155.194843 744.647875,155.320844 C744.836876,155.446844 745.06554,155.562343 745.333875,155.667344 C745.60221,155.772344 745.93004,155.824844 746.317375,155.824844 C746.639377,155.824844 746.926374,155.780511 747.178375,155.691844 C747.430376,155.603177 747.643874,155.478345 747.818875,155.317344 C747.993876,155.156343 748.128041,154.963845 748.221375,154.739844 C748.314709,154.515843 748.361375,154.266178 748.361375,153.990844 C748.361375,153.687509 748.292542,153.439011 748.154875,153.245344 C748.017208,153.051676 747.836376,152.889511 747.612375,152.758844 C747.388374,152.628176 747.132876,152.517344 746.845875,152.426344 C746.558874,152.335343 746.264877,152.242011 745.963875,152.146344 C745.662873,152.050677 745.368876,151.939844 745.081875,151.813844 C744.794874,151.687843 744.539376,151.524511 744.315375,151.323844 C744.091374,151.123176 743.910542,150.872345 743.772875,150.571344 C743.635208,150.270342 743.566375,149.898179 743.566375,149.454844 C743.566375,149.100175 743.635208,148.757179 743.772875,148.425844 C743.910542,148.094509 744.11004,147.800512 744.371375,147.543844 C744.63271,147.287176 744.955873,147.081845 745.340875,146.927844 C745.725877,146.773843 746.168039,146.696844 746.667375,146.696844 C747.227378,146.696844 747.738373,146.78551 748.200375,146.962844 C748.662377,147.140178 749.06604,147.396842 749.411375,147.732844 L749.082375,148.376844 Z" id="WEB-DESIGN-FUNDAMENT" fill="#FFFFFF"></path>
            <path d="M32.816375,106.222656 L32.816375,84.9106563 L12.944375,84.9106563 L12.944375,106.222656 L0.632375,106.222656 L0.632375,55.2466563 L12.944375,55.2466563 L12.944375,74.5426563 L32.816375,74.5426563 L32.816375,55.2466563 L45.128375,55.2466563 L45.128375,106.222656 L32.816375,106.222656 Z M65.640375,106.222656 L65.640375,55.2466563 L99.912375,55.2466563 L99.912375,65.6866563 L77.520375,65.6866563 L77.520375,75.2626563 L98.688375,75.2626563 L98.688375,85.1266563 L77.520375,85.1266563 L77.520375,95.7106563 L101.208375,95.7106563 L101.208375,106.222656 L65.640375,106.222656 Z M119.344375,106.222656 L119.344375,55.2466563 L131.728375,55.2466563 L131.728375,95.4946563 L151.456375,95.4946563 L151.456375,106.222656 L119.344375,106.222656 Z M167.216375,106.222656 L167.216375,55.2466563 L179.600375,55.2466563 L179.600375,95.4946563 L199.328375,95.4946563 L199.328375,106.222656 L167.216375,106.222656 Z M266.064375,80.5186563 C266.064375,84.5506764 265.368382,88.2346396 263.976375,91.5706563 C262.584368,94.9066729 260.652387,97.7626444 258.180375,100.138656 C255.708363,102.514668 252.768392,104.35065 249.360375,105.646656 C245.952358,106.942663 242.256395,107.590656 238.272375,107.590656 C234.288355,107.590656 230.604392,106.942663 227.220375,105.646656 C223.836358,104.35065 220.908387,102.514668 218.436375,100.138656 C215.964363,97.7626444 214.032382,94.9066729 212.640375,91.5706563 C211.248368,88.2346396 210.552375,84.5506764 210.552375,80.5186563 C210.552375,76.4386359 211.248368,72.7546727 212.640375,69.4666563 C214.032382,66.1786398 215.964363,63.3826678 218.436375,61.0786563 C220.908387,58.7746447 223.836358,56.9986625 227.220375,55.7506563 C230.604392,54.50265 234.288355,53.8786563 238.272375,53.8786563 C242.256395,53.8786563 245.952358,54.50265 249.360375,55.7506563 C252.768392,56.9986625 255.708363,58.7746447 258.180375,61.0786563 C260.652387,63.3826678 262.584368,66.1786398 263.976375,69.4666563 C265.368382,72.7546727 266.064375,76.4386359 266.064375,80.5186563 L266.064375,80.5186563 Z M252.888375,80.5186563 C252.888375,78.3106452 252.528379,76.2466659 251.808375,74.3266563 C251.088371,72.4066467 250.092381,70.7626631 248.820375,69.3946563 C247.548369,68.0266494 246.012384,66.9466602 244.212375,66.1546563 C242.412366,65.3626523 240.432386,64.9666563 238.272375,64.9666563 C236.112364,64.9666563 234.144384,65.3626523 232.368375,66.1546563 C230.592366,66.9466602 229.056381,68.0266494 227.760375,69.3946563 C226.464369,70.7626631 225.468378,72.4066467 224.772375,74.3266563 C224.076372,76.2466659 223.728375,78.3106452 223.728375,80.5186563 C223.728375,82.8226678 224.088371,84.9466465 224.808375,86.8906563 C225.528379,88.834666 226.524369,90.5026493 227.796375,91.8946563 C229.068381,93.2866632 230.592366,94.3786523 232.368375,95.1706563 C234.144384,95.9626602 236.112364,96.3586563 238.272375,96.3586563 C240.432386,96.3586563 242.400366,95.9626602 244.176375,95.1706563 C245.952384,94.3786523 247.488369,93.2866632 248.784375,91.8946563 C250.080381,90.5026493 251.088371,88.834666 251.808375,86.8906563 C252.528379,84.9466465 252.888375,82.8226678 252.888375,80.5186563 L252.888375,80.5186563 Z M365.336375,106.222656 L353.168375,106.222656 L343.088375,71.7346563 L342.872375,71.7346563 L332.792375,106.222656 L320.552375,106.222656 L306.080375,55.2466563 L319.328375,55.2466563 L327.392375,89.1586563 L327.608375,89.1586563 L336.680375,55.2466563 L349.496375,55.2466563 L358.640375,89.1586563 L358.856375,89.1586563 L367.064375,55.2466563 L379.880375,55.2466563 L365.336375,106.222656 Z M395.136375,106.222656 L395.136375,55.2466563 L429.408375,55.2466563 L429.408375,65.6866563 L407.016375,65.6866563 L407.016375,75.2626563 L428.184375,75.2626563 L428.184375,85.1266563 L407.016375,85.1266563 L407.016375,95.7106563 L430.704375,95.7106563 L430.704375,106.222656 L395.136375,106.222656 Z M488.584375,91.3906563 C488.584375,94.1746702 488.032381,96.5146468 486.928375,98.4106563 C485.824369,100.306666 484.360384,101.83065 482.536375,102.982656 C480.712366,104.134662 478.636387,104.962654 476.308375,105.466656 C473.980363,105.970659 471.592387,106.222656 469.144375,106.222656 L448.840375,106.222656 L448.840375,55.2466563 L469.144375,55.2466563 C471.112385,55.2466563 473.128365,55.4506542 475.192375,55.8586563 C477.256385,56.2666583 479.128367,56.9626513 480.808375,57.9466563 C482.488383,58.9306612 483.85637,60.2626479 484.912375,61.9426563 C485.96838,63.6226647 486.496375,65.7586433 486.496375,68.3506563 C486.496375,71.1826704 485.728383,73.522647 484.192375,75.3706563 C482.656367,77.2186655 480.640387,78.5506522 478.144375,79.3666563 L478.144375,79.5106563 C479.584382,79.7506575 480.940369,80.194653 482.212375,80.8426563 C483.484381,81.4906595 484.58837,82.3186512 485.524375,83.3266563 C486.46038,84.3346613 487.204372,85.5106495 487.756375,86.8546563 C488.308378,88.198663 488.584375,89.7106479 488.584375,91.3906563 L488.584375,91.3906563 Z M474.616375,70.0066563 C474.616375,68.2786476 473.956382,67.0186602 472.636375,66.2266563 C471.316368,65.4346523 469.360388,65.0386563 466.768375,65.0386563 L460.720375,65.0386563 L460.720375,75.5506563 L467.344375,75.5506563 C469.648387,75.5506563 471.436369,75.0826609 472.708375,74.1466563 C473.980381,73.2106516 474.616375,71.8306654 474.616375,70.0066563 L474.616375,70.0066563 Z M476.272375,90.2386563 C476.272375,88.1266457 475.480383,86.6626603 473.896375,85.8466563 C472.312367,85.0306522 470.200388,84.6226563 467.560375,84.6226563 L460.720375,84.6226563 L460.720375,96.2866563 L467.632375,96.2866563 C468.59238,96.2866563 469.58837,96.2026571 470.620375,96.0346563 C471.65238,95.8666554 472.588371,95.5666584 473.428375,95.1346563 C474.268379,94.7026541 474.952372,94.0906602 475.480375,93.2986563 C476.008378,92.5066523 476.272375,91.4866625 476.272375,90.2386563 L476.272375,90.2386563 Z M582.312375,80.5906563 C582.312375,85.0546786 581.484383,88.9066401 579.828375,92.1466563 C578.172367,95.3866725 575.988389,98.0506458 573.276375,100.138656 C570.564361,102.226667 567.504392,103.762651 564.096375,104.746656 C560.688358,105.730661 557.232393,106.222656 553.728375,106.222656 L534.720375,106.222656 L534.720375,55.2466563 L553.152375,55.2466563 C556.752393,55.2466563 560.304357,55.6666521 563.808375,56.5066563 C567.312393,57.3466605 570.432361,58.7386465 573.168375,60.6826563 C575.904389,62.626666 578.112367,65.2306399 579.792375,68.4946563 C581.472383,71.7586726 582.312375,75.7906323 582.312375,80.5906563 L582.312375,80.5906563 Z M569.496375,80.5906563 C569.496375,77.7106419 569.02838,75.3226657 568.092375,73.4266563 C567.15637,71.5306468 565.908383,70.0186619 564.348375,68.8906563 C562.788367,67.7626506 561.012385,66.9586587 559.020375,66.4786563 C557.028365,65.9986539 554.976386,65.7586563 552.864375,65.7586563 L546.744375,65.7586563 L546.744375,95.5666563 L552.576375,95.5666563 C554.784386,95.5666563 556.908365,95.3146588 558.948375,94.8106563 C560.988385,94.3066537 562.788367,93.478662 564.348375,92.3266563 C565.908383,91.1746505 567.15637,89.6386659 568.092375,87.7186563 C569.02838,85.7986467 569.496375,83.4226704 569.496375,80.5906563 L569.496375,80.5906563 Z M600.448375,106.222656 L600.448375,55.2466563 L634.720375,55.2466563 L634.720375,65.6866563 L612.328375,65.6866563 L612.328375,75.2626563 L633.496375,75.2626563 L633.496375,85.1266563 L612.328375,85.1266563 L612.328375,95.7106563 L636.016375,95.7106563 L636.016375,106.222656 L600.448375,106.222656 Z M681.080375,68.4946563 C680.02437,67.1506495 678.644384,66.0826602 676.940375,65.2906563 C675.236366,64.4986523 673.592383,64.1026563 672.008375,64.1026563 C671.192371,64.1026563 670.364379,64.1746555 669.524375,64.3186563 C668.684371,64.462657 667.928378,64.7386542 667.256375,65.1466563 C666.584372,65.5546583 666.020377,66.082653 665.564375,66.7306563 C665.108373,67.3786595 664.880375,68.2066512 664.880375,69.2146563 C664.880375,70.0786606 665.060373,70.7986534 665.420375,71.3746563 C665.780377,71.9506591 666.308372,72.4546541 667.004375,72.8866563 C667.700378,73.3186584 668.52837,73.7146545 669.488375,74.0746563 C670.44838,74.4346581 671.528369,74.8066543 672.728375,75.1906563 C674.456384,75.7666591 676.256366,76.4026528 678.128375,77.0986563 C680.000384,77.7946597 681.704367,78.7186505 683.240375,79.8706563 C684.776383,81.022662 686.04837,82.4506477 687.056375,84.1546563 C688.06438,85.8586648 688.568375,87.9826435 688.568375,90.5266563 C688.568375,93.4546709 688.02838,95.9866456 686.948375,98.1226563 C685.86837,100.258667 684.416384,102.022649 682.592375,103.414656 C680.768366,104.806663 678.680387,105.838653 676.328375,106.510656 C673.976363,107.18266 671.552387,107.518656 669.056375,107.518656 C665.408357,107.518656 661.880392,106.882663 658.472375,105.610656 C655.064358,104.33865 652.232386,102.526668 649.976375,100.174656 L658.040375,91.9666563 C659.288381,93.5026639 660.932365,94.7866511 662.972375,95.8186563 C665.012385,96.8506614 667.040365,97.3666563 669.056375,97.3666563 C669.96838,97.3666563 670.856371,97.2706572 671.720375,97.0786563 C672.584379,96.8866553 673.340372,96.5746584 673.988375,96.1426563 C674.636378,95.7106541 675.152373,95.1346599 675.536375,94.4146563 C675.920377,93.6946527 676.112375,92.8306613 676.112375,91.8226563 C676.112375,90.8626515 675.872377,90.0466596 675.392375,89.3746563 C674.912373,88.7026529 674.228379,88.090659 673.340375,87.5386563 C672.452371,86.9866535 671.348382,86.4826585 670.028375,86.0266563 C668.708368,85.570654 667.208383,85.0786589 665.528375,84.5506563 C663.896367,84.0226536 662.300383,83.3986599 660.740375,82.6786563 C659.180367,81.9586527 657.788381,81.0346619 656.564375,79.9066563 C655.340369,78.7786506 654.356379,77.4106643 653.612375,75.8026563 C652.868371,74.1946482 652.496375,72.2386678 652.496375,69.9346563 C652.496375,67.1026421 653.072369,64.6786663 654.224375,62.6626563 C655.376381,60.6466462 656.888366,58.9906627 658.760375,57.6946563 C660.632384,56.3986498 662.744363,55.4506593 665.096375,54.8506563 C667.448387,54.2506533 669.824363,53.9506563 672.224375,53.9506563 C675.104389,53.9506563 678.04436,54.478651 681.044375,55.5346563 C684.04439,56.5906615 686.672364,58.1506459 688.928375,60.2146563 L681.080375,68.4946563 Z M706.704375,106.222656 L706.704375,55.2466563 L719.088375,55.2466563 L719.088375,106.222656 L706.704375,106.222656 Z M784.888375,103.126656 C782.392363,104.422663 779.476392,105.478652 776.140375,106.294656 C772.804358,107.11066 769.168395,107.518656 765.232375,107.518656 C761.152355,107.518656 757.396392,106.870663 753.964375,105.574656 C750.532358,104.27865 747.580387,102.454668 745.108375,100.102656 C742.636363,97.7506445 740.704382,94.9306727 739.312375,91.6426563 C737.920368,88.3546398 737.224375,84.6946764 737.224375,80.6626563 C737.224375,76.5826359 737.932368,72.8866728 739.348375,69.5746563 C740.764382,66.2626397 742.720363,63.4426679 745.216375,61.1146563 C747.712387,58.7866446 750.640358,56.9986625 754.000375,55.7506563 C757.360392,54.50265 760.984356,53.8786563 764.872375,53.8786563 C768.904395,53.8786563 772.648358,54.4906501 776.104375,55.7146563 C779.560392,56.9386624 782.368364,58.5826459 784.528375,60.6466563 L776.752375,69.5026563 C775.552369,68.1106493 773.968385,66.9706607 772.000375,66.0826562 C770.032365,65.1946518 767.800387,64.7506563 765.304375,64.7506563 C763.144364,64.7506563 761.152384,65.1466523 759.328375,65.9386563 C757.504366,66.7306602 755.920382,67.8346492 754.576375,69.2506563 C753.232368,70.6666633 752.188379,72.3466465 751.444375,74.2906563 C750.700371,76.234666 750.328375,78.3586447 750.328375,80.6626563 C750.328375,83.014668 750.664372,85.1746464 751.336375,87.1426563 C752.008378,89.1106661 753.004368,90.8026492 754.324375,92.2186563 C755.644382,93.6346633 757.276365,94.7386523 759.220375,95.5306563 C761.164385,96.3226602 763.384363,96.7186563 765.880375,96.7186563 C767.320382,96.7186563 768.688369,96.6106573 769.984375,96.3946563 C771.280381,96.1786552 772.480369,95.8306587 773.584375,95.3506563 L773.584375,86.0626563 L763.864375,86.0626563 L763.864375,76.1266563 L784.888375,76.1266563 L784.888375,103.126656 Z M837.368375,106.222656 L816.848375,72.8866563 L816.632375,72.8866563 L816.920375,106.222656 L804.968375,106.222656 L804.968375,55.2466563 L819.008375,55.2466563 L839.456375,88.5106563 L839.672375,88.5106563 L839.384375,55.2466563 L851.336375,55.2466563 L851.336375,106.222656 L837.368375,106.222656 Z" id="HELLO-WEB-DESIGN" fill="#FFFFFF"></path>
            <path d="M120.5,202.5 L721.600647,202.5" id="Line" stroke="#FFFFFF" stroke-width="3" stroke-linecap="square" opacity="0.238572761"></path>
            <path d="M120.5,1.5 L721.600647,1.5" id="Line" stroke="#FFFFFF" stroke-width="3" stroke-linecap="square" opacity="0.238572761"></path>
        </g>
    </g>
</svg>