<?xml version="1.0" encoding="UTF-8" standalone="no"?>
<svg width="489px" height="135px" viewBox="0 0 489 135" version="1.1" xmlns="http://www.w3.org/2000/svg" xmlns:xlink="http://www.w3.org/1999/xlink">
    <!-- Generator: Sketch 40.3 (33839) - http://www.bohemiancoding.com/sketch -->
    <title>Slice 1</title>
    <desc>Created with Sketch.</desc>
    <defs></defs>
    <g id="Page-1" stroke="none" stroke-width="1" fill="none" fill-rule="evenodd">
        <path d="M32.380375,53.2226562 L32.380375,31.9106562 L12.508375,31.9106562 L12.508375,53.2226562 L0.196375,53.2226562 L0.196375,2.24665625 L12.508375,2.24665625 L12.508375,21.5426562 L32.380375,21.5426562 L32.380375,2.24665625 L44.692375,2.24665625 L44.692375,53.2226562 L32.380375,53.2226562 Z M65.204375,53.2226562 L65.204375,2.24665625 L99.476375,2.24665625 L99.476375,12.6866562 L77.084375,12.6866562 L77.084375,22.2626562 L98.252375,22.2626562 L98.252375,32.1266562 L77.084375,32.1266562 L77.084375,42.7106562 L100.772375,42.7106562 L100.772375,53.2226562 L65.204375,53.2226562 Z M118.908375,53.2226562 L118.908375,2.24665625 L131.292375,2.24665625 L131.292375,42.4946562 L151.020375,42.4946562 L151.020375,53.2226562 L118.908375,53.2226562 Z M166.780375,53.2226562 L166.780375,2.24665625 L179.164375,2.24665625 L179.164375,42.4946562 L198.892375,42.4946562 L198.892375,53.2226562 L166.780375,53.2226562 Z M265.628375,27.5186562 C265.628375,31.5506764 264.932382,35.2346396 263.540375,38.5706563 C262.148368,41.9066729 260.216387,44.7626444 257.744375,47.1386562 C255.272363,49.5146681 252.332392,51.3506498 248.924375,52.6466562 C245.516358,53.9426627 241.820395,54.5906562 237.836375,54.5906562 C233.852355,54.5906562 230.168392,53.9426627 226.784375,52.6466562 C223.400358,51.3506498 220.472387,49.5146681 218.000375,47.1386562 C215.528363,44.7626444 213.596382,41.9066729 212.204375,38.5706563 C210.812368,35.2346396 210.116375,31.5506764 210.116375,27.5186562 C210.116375,23.4386358 210.812368,19.7546727 212.204375,16.4666563 C213.596382,13.1786398 215.528363,10.3826678 218.000375,8.07865625 C220.472387,5.77464473 223.400358,3.99866249 226.784375,2.75065625 C230.168392,1.50265001 233.852355,0.87865625 237.836375,0.87865625 C241.820395,0.87865625 245.516358,1.50265001 248.924375,2.75065625 C252.332392,3.99866249 255.272363,5.77464473 257.744375,8.07865625 C260.216387,10.3826678 262.148368,13.1786398 263.540375,16.4666563 C264.932382,19.7546727 265.628375,23.4386358 265.628375,27.5186562 L265.628375,27.5186562 Z M252.452375,27.5186562 C252.452375,25.3106452 252.092379,23.2466658 251.372375,21.3266562 C250.652371,19.4066466 249.656381,17.7626631 248.384375,16.3946563 C247.112369,15.0266494 245.576384,13.9466602 243.776375,13.1546563 C241.976366,12.3626523 239.996386,11.9666563 237.836375,11.9666563 C235.676364,11.9666563 233.708384,12.3626523 231.932375,13.1546563 C230.156366,13.9466602 228.620381,15.0266494 227.324375,16.3946563 C226.028369,17.7626631 225.032378,19.4066466 224.336375,21.3266562 C223.640372,23.2466658 223.292375,25.3106452 223.292375,27.5186562 C223.292375,29.8226678 223.652371,31.9466465 224.372375,33.8906563 C225.092379,35.834666 226.088369,37.5026493 227.360375,38.8946563 C228.632381,40.2866632 230.156366,41.3786523 231.932375,42.1706562 C233.708384,42.9626602 235.676364,43.3586562 237.836375,43.3586562 C239.996386,43.3586562 241.964366,42.9626602 243.740375,42.1706562 C245.516384,41.3786523 247.052369,40.2866632 248.348375,38.8946563 C249.644381,37.5026493 250.652371,35.834666 251.372375,33.8906563 C252.092379,31.9466465 252.452375,29.8226678 252.452375,27.5186562 L252.452375,27.5186562 Z M364.900375,53.2226562 L352.732375,53.2226562 L342.652375,18.7346563 L342.436375,18.7346563 L332.356375,53.2226562 L320.116375,53.2226562 L305.644375,2.24665625 L318.892375,2.24665625 L326.956375,36.1586562 L327.172375,36.1586562 L336.244375,2.24665625 L349.060375,2.24665625 L358.204375,36.1586562 L358.420375,36.1586562 L366.628375,2.24665625 L379.444375,2.24665625 L364.900375,53.2226562 Z M394.700375,53.2226562 L394.700375,2.24665625 L428.972375,2.24665625 L428.972375,12.6866562 L406.580375,12.6866562 L406.580375,22.2626562 L427.748375,22.2626562 L427.748375,32.1266562 L406.580375,32.1266562 L406.580375,42.7106562 L430.268375,42.7106562 L430.268375,53.2226562 L394.700375,53.2226562 Z M488.148375,38.3906563 C488.148375,41.1746702 487.596381,43.5146468 486.492375,45.4106562 C485.388369,47.3066657 483.924384,48.8306505 482.100375,49.9826562 C480.276366,51.134662 478.200387,51.9626537 475.872375,52.4666563 C473.544363,52.9706588 471.156387,53.2226562 468.708375,53.2226562 L448.404375,53.2226562 L448.404375,2.24665625 L468.708375,2.24665625 C470.676385,2.24665625 472.692365,2.45065421 474.756375,2.85865625 C476.820385,3.26665829 478.692367,3.96265133 480.372375,4.94665625 C482.052383,5.93066117 483.42037,7.26264785 484.476375,8.94265625 C485.53238,10.6226646 486.060375,12.7586433 486.060375,15.3506562 C486.060375,18.1826704 485.292383,20.522647 483.756375,22.3706563 C482.220367,24.2186655 480.204387,25.5506522 477.708375,26.3666563 L477.708375,26.5106563 C479.148382,26.7506575 480.504369,27.194653 481.776375,27.8426563 C483.048381,28.4906595 484.15237,29.3186512 485.088375,30.3266562 C486.02438,31.3346613 486.768372,32.5106495 487.320375,33.8546563 C487.872378,35.198663 488.148375,36.7106478 488.148375,38.3906563 L488.148375,38.3906563 Z M474.180375,17.0066562 C474.180375,15.2786476 473.520382,14.0186602 472.200375,13.2266563 C470.880368,12.4346523 468.924388,12.0386563 466.332375,12.0386563 L460.284375,12.0386563 L460.284375,22.5506562 L466.908375,22.5506562 C469.212387,22.5506562 471.000369,22.0826609 472.272375,21.1466562 C473.544381,20.2106516 474.180375,18.8306654 474.180375,17.0066562 L474.180375,17.0066562 Z M475.836375,37.2386562 C475.836375,35.1266457 475.044383,33.6626603 473.460375,32.8466563 C471.876367,32.0306522 469.764388,31.6226562 467.124375,31.6226562 L460.284375,31.6226562 L460.284375,43.2866562 L467.196375,43.2866562 C468.15638,43.2866562 469.15237,43.2026571 470.184375,43.0346563 C471.21638,42.8666554 472.152371,42.5666584 472.992375,42.1346563 C473.832379,41.7026541 474.516372,41.0906602 475.044375,40.2986563 C475.572378,39.5066523 475.836375,38.4866625 475.836375,37.2386562 L475.836375,37.2386562 Z M123.718375,107.590656 C123.718375,112.054679 122.890383,115.90664 121.234375,119.146656 C119.578367,122.386672 117.394389,125.050646 114.682375,127.138656 C111.970361,129.226667 108.910392,130.762651 105.502375,131.746656 C102.094358,132.730661 98.6383925,133.222656 95.134375,133.222656 L76.126375,133.222656 L76.126375,82.2466563 L94.558375,82.2466563 C98.158393,82.2466563 101.710357,82.666652 105.214375,83.5066562 C108.718393,84.3466605 111.838361,85.7386465 114.574375,87.6826562 C117.310389,89.626666 119.518367,92.2306399 121.198375,95.4946562 C122.878383,98.7586726 123.718375,102.790632 123.718375,107.590656 L123.718375,107.590656 Z M110.902375,107.590656 C110.902375,104.710642 110.43438,102.322666 109.498375,100.426656 C108.56237,98.5306468 107.314383,97.0186619 105.754375,95.8906563 C104.194367,94.7626506 102.418385,93.9586586 100.426375,93.4786562 C98.434365,92.9986538 96.3823856,92.7586563 94.270375,92.7586563 L88.150375,92.7586563 L88.150375,122.566656 L93.982375,122.566656 C96.190386,122.566656 98.3143648,122.314659 100.354375,121.810656 C102.394385,121.306654 104.194367,120.478662 105.754375,119.326656 C107.314383,118.17465 108.56237,116.638666 109.498375,114.718656 C110.43438,112.798647 110.902375,110.42267 110.902375,107.590656 L110.902375,107.590656 Z M140.954375,133.222656 L140.954375,82.2466563 L175.226375,82.2466563 L175.226375,92.6866562 L152.834375,92.6866562 L152.834375,102.262656 L174.002375,102.262656 L174.002375,112.126656 L152.834375,112.126656 L152.834375,122.710656 L176.522375,122.710656 L176.522375,133.222656 L140.954375,133.222656 Z M221.586375,95.4946562 C220.53037,94.1506495 219.150384,93.0826602 217.446375,92.2906562 C215.742366,91.4986523 214.098383,91.1026562 212.514375,91.1026562 C211.698371,91.1026562 210.870379,91.1746555 210.030375,91.3186563 C209.190371,91.462657 208.434378,91.7386542 207.762375,92.1466562 C207.090372,92.5546583 206.526377,93.082653 206.070375,93.7306562 C205.614373,94.3786595 205.386375,95.2066512 205.386375,96.2146562 C205.386375,97.0786606 205.566373,97.7986534 205.926375,98.3746562 C206.286377,98.9506591 206.814372,99.4546541 207.510375,99.8866562 C208.206378,100.318658 209.03437,100.714654 209.994375,101.074656 C210.95438,101.434658 212.034369,101.806654 213.234375,102.190656 C214.962384,102.766659 216.762366,103.402653 218.634375,104.098656 C220.506384,104.79466 222.210367,105.71865 223.746375,106.870656 C225.282383,108.022662 226.55437,109.450648 227.562375,111.154656 C228.57038,112.858665 229.074375,114.982644 229.074375,117.526656 C229.074375,120.454671 228.53438,122.986646 227.454375,125.122656 C226.37437,127.258667 224.922384,129.022649 223.098375,130.414656 C221.274366,131.806663 219.186387,132.838653 216.834375,133.510656 C214.482363,134.18266 212.058387,134.518656 209.562375,134.518656 C205.914357,134.518656 202.386392,133.882663 198.978375,132.610656 C195.570358,131.33865 192.738386,129.526668 190.482375,127.174656 L198.546375,118.966656 C199.794381,120.502664 201.438365,121.786651 203.478375,122.818656 C205.518385,123.850661 207.546365,124.366656 209.562375,124.366656 C210.47438,124.366656 211.362371,124.270657 212.226375,124.078656 C213.090379,123.886655 213.846372,123.574658 214.494375,123.142656 C215.142378,122.710654 215.658373,122.13466 216.042375,121.414656 C216.426377,120.694653 216.618375,119.830661 216.618375,118.822656 C216.618375,117.862651 216.378377,117.04666 215.898375,116.374656 C215.418373,115.702653 214.734379,115.090659 213.846375,114.538656 C212.958371,113.986653 211.854382,113.482659 210.534375,113.026656 C209.214368,112.570654 207.714383,112.078659 206.034375,111.550656 C204.402367,111.022654 202.806383,110.39866 201.246375,109.678656 C199.686367,108.958653 198.294381,108.034662 197.070375,106.906656 C195.846369,105.778651 194.862379,104.410664 194.118375,102.802656 C193.374371,101.194648 193.002375,99.2386678 193.002375,96.9346562 C193.002375,94.1026421 193.578369,91.6786663 194.730375,89.6626562 C195.882381,87.6466462 197.394366,85.9906627 199.266375,84.6946562 C201.138384,83.3986498 203.250363,82.4506593 205.602375,81.8506562 C207.954387,81.2506533 210.330363,80.9506563 212.730375,80.9506563 C215.610389,80.9506563 218.55036,81.478651 221.550375,82.5346563 C224.55039,83.5906615 227.178364,85.1506459 229.434375,87.2146562 L221.586375,95.4946562 Z M247.210375,133.222656 L247.210375,82.2466563 L259.594375,82.2466563 L259.594375,133.222656 L247.210375,133.222656 Z M325.394375,130.126656 C322.898363,131.422663 319.982392,132.478652 316.646375,133.294656 C313.310358,134.11066 309.674395,134.518656 305.738375,134.518656 C301.658355,134.518656 297.902392,133.870663 294.470375,132.574656 C291.038358,131.27865 288.086387,129.454668 285.614375,127.102656 C283.142363,124.750644 281.210382,121.930673 279.818375,118.642656 C278.426368,115.35464 277.730375,111.694676 277.730375,107.662656 C277.730375,103.582636 278.438368,99.8866728 279.854375,96.5746562 C281.270382,93.2626397 283.226363,90.4426679 285.722375,88.1146562 C288.218387,85.7866446 291.146358,83.9986625 294.506375,82.7506563 C297.866392,81.50265 301.490356,80.8786563 305.378375,80.8786563 C309.410395,80.8786563 313.154358,81.4906501 316.610375,82.7146562 C320.066392,83.9386624 322.874364,85.5826459 325.034375,87.6466562 L317.258375,96.5026562 C316.058369,95.1106493 314.474385,93.9706607 312.506375,93.0826563 C310.538365,92.1946518 308.306387,91.7506563 305.810375,91.7506563 C303.650364,91.7506563 301.658384,92.1466523 299.834375,92.9386563 C298.010366,93.7306602 296.426382,94.8346492 295.082375,96.2506563 C293.738368,97.6666633 292.694379,99.3466465 291.950375,101.290656 C291.206371,103.234666 290.834375,105.358645 290.834375,107.662656 C290.834375,110.014668 291.170372,112.174646 291.842375,114.142656 C292.514378,116.110666 293.510368,117.802649 294.830375,119.218656 C296.150382,120.634663 297.782365,121.738652 299.726375,122.530656 C301.670385,123.32266 303.890363,123.718656 306.386375,123.718656 C307.826382,123.718656 309.194369,123.610657 310.490375,123.394656 C311.786381,123.178655 312.986369,122.830659 314.090375,122.350656 L314.090375,113.062656 L304.370375,113.062656 L304.370375,103.126656 L325.394375,103.126656 L325.394375,130.126656 Z M377.874375,133.222656 L357.354375,99.8866562 L357.138375,99.8866562 L357.426375,133.222656 L345.474375,133.222656 L345.474375,82.2466563 L359.514375,82.2466563 L379.962375,115.510656 L380.178375,115.510656 L379.890375,82.2466563 L391.842375,82.2466563 L391.842375,133.222656 L377.874375,133.222656 Z" id="HELLO-WEB-DESIGN" fill="#FFFFFF"></path>
    </g>
</svg>