<?xml version="1.0" encoding="UTF-8" standalone="no"?>
<svg width="852px" height="55px" viewBox="0 0 852 55" version="1.1" xmlns="http://www.w3.org/2000/svg" xmlns:xlink="http://www.w3.org/1999/xlink">
    <!-- Generator: Sketch 40.3 (33839) - http://www.bohemiancoding.com/sketch -->
    <title>Slice 1</title>
    <desc>Created with Sketch.</desc>
    <defs></defs>
    <g id="Page-1" stroke="none" stroke-width="1" fill="none" fill-rule="evenodd">
        <path d="M32.816375,53.2226562 L32.816375,31.9106563 L12.944375,31.9106563 L12.944375,53.2226562 L0.632375,53.2226562 L0.632375,2.24665625 L12.944375,2.24665625 L12.944375,21.5426562 L32.816375,21.5426562 L32.816375,2.24665625 L45.128375,2.24665625 L45.128375,53.2226562 L32.816375,53.2226562 Z M65.640375,53.2226562 L65.640375,2.24665625 L99.912375,2.24665625 L99.912375,12.6866562 L77.520375,12.6866562 L77.520375,22.2626562 L98.688375,22.2626562 L98.688375,32.1266562 L77.520375,32.1266562 L77.520375,42.7106562 L101.208375,42.7106562 L101.208375,53.2226562 L65.640375,53.2226562 Z M119.344375,53.2226562 L119.344375,2.24665625 L131.728375,2.24665625 L131.728375,42.4946562 L151.456375,42.4946562 L151.456375,53.2226562 L119.344375,53.2226562 Z M167.216375,53.2226562 L167.216375,2.24665625 L179.600375,2.24665625 L179.600375,42.4946562 L199.328375,42.4946562 L199.328375,53.2226562 L167.216375,53.2226562 Z M263.976375,38.5706563 C262.584368,41.9066729 260.652387,44.7626444 258.180375,47.1386563 C255.708363,49.5146681 252.768392,51.3506498 249.360375,52.6466563 C245.952358,53.9426627 242.256395,54.5906563 238.272375,54.5906563 C234.288355,54.5906563 230.604392,53.9426627 227.220375,52.6466563 C223.836358,51.3506498 220.908387,49.5146681 218.436375,47.1386563 C215.964363,44.7626444 214.032382,41.9066729 212.640375,38.5706563 C211.248368,35.2346396 210.552375,31.5506764 210.552375,27.5186563 C210.552375,23.4386359 211.248368,19.7546727 212.640375,16.4666563 C214.032382,13.1786398 215.964363,10.3826678 218.436375,8.07865625 C220.908387,5.77464473 223.836358,3.99866249 227.220375,2.75065625 C230.604392,1.50265001 234.288355,0.87865625 238.272375,0.87865625 C242.256395,0.87865625 245.952358,1.50265001 249.360375,2.75065625 C252.768392,3.99866249 255.708363,5.77464473 258.180375,8.07865625 C260.652387,10.3826678 262.584368,13.1786398 263.976375,16.4666563 C265.368382,19.7546727 266.064375,23.4386359 266.064375,27.5186563 C266.064375,31.5506764 265.368382,35.2346396 263.976375,38.5706563 Z M251.808375,21.3266563 C251.088371,19.4066467 250.092381,17.7626631 248.820375,16.3946563 C247.548369,15.0266494 246.012384,13.9466602 244.212375,13.1546563 C242.412366,12.3626523 240.432386,11.9666563 238.272375,11.9666563 C236.112364,11.9666563 234.144384,12.3626523 232.368375,13.1546563 C230.592366,13.9466602 229.056381,15.0266494 227.760375,16.3946563 C226.464369,17.7626631 225.468378,19.4066467 224.772375,21.3266563 C224.076372,23.2466659 223.728375,25.3106452 223.728375,27.5186563 C223.728375,29.8226678 224.088371,31.9466465 224.808375,33.8906563 C225.528379,35.834666 226.524369,37.5026493 227.796375,38.8946563 C229.068381,40.2866632 230.592366,41.3786523 232.368375,42.1706563 C234.144384,42.9626602 236.112364,43.3586563 238.272375,43.3586563 C240.432386,43.3586563 242.400366,42.9626602 244.176375,42.1706563 C245.952384,41.3786523 247.488369,40.2866632 248.784375,38.8946563 C250.080381,37.5026493 251.088371,35.834666 251.808375,33.8906563 C252.528379,31.9466465 252.888375,29.8226678 252.888375,27.5186563 C252.888375,25.3106452 252.528379,23.2466659 251.808375,21.3266563 Z M365.336375,53.2226562 L353.168375,53.2226562 L343.088375,18.7346563 L332.792375,53.2226562 L320.552375,53.2226562 L306.080375,2.24665625 L319.328375,2.24665625 L327.392375,36.1586562 L336.680375,2.24665625 L349.496375,2.24665625 L358.640375,36.1586562 L367.064375,2.24665625 L379.880375,2.24665625 L365.336375,53.2226562 Z M395.136375,53.2226562 L395.136375,2.24665625 L429.408375,2.24665625 L429.408375,12.6866562 L407.016375,12.6866562 L407.016375,22.2626562 L428.184375,22.2626562 L428.184375,32.1266562 L407.016375,32.1266562 L407.016375,42.7106562 L430.704375,42.7106562 L430.704375,53.2226562 L395.136375,53.2226562 Z M486.928375,45.4106563 C485.824369,47.3066657 484.360384,48.8306505 482.536375,49.9826562 C480.712366,51.134662 478.636387,51.9626537 476.308375,52.4666562 C473.980363,52.9706588 471.592387,53.2226562 469.144375,53.2226562 L448.840375,53.2226562 L448.840375,2.24665625 L469.144375,2.24665625 C471.112385,2.24665625 473.128365,2.45065421 475.192375,2.85865625 C477.256385,3.26665829 479.128367,3.96265133 480.808375,4.94665625 C482.488383,5.93066117 483.85637,7.26264785 484.912375,8.94265625 C485.96838,10.6226646 486.496375,12.7586433 486.496375,15.3506562 C486.496375,18.1826704 485.728383,20.522647 484.192375,22.3706562 C482.656367,24.2186655 480.640387,25.5506522 478.144375,26.3666563 C479.584382,26.7506575 480.940369,27.194653 482.212375,27.8426563 C483.484381,28.4906595 484.58837,29.3186512 485.524375,30.3266562 C486.46038,31.3346613 487.204372,32.5106495 487.756375,33.8546563 C488.308378,35.198663 488.584375,36.7106479 488.584375,38.3906563 C488.584375,41.1746702 488.032381,43.5146468 486.928375,45.4106563 Z M472.636375,13.2266563 C471.316368,12.4346523 469.360388,12.0386563 466.768375,12.0386563 L460.720375,12.0386563 L460.720375,22.5506563 L467.344375,22.5506563 C469.648387,22.5506563 471.436369,22.0826609 472.708375,21.1466563 C473.980381,20.2106516 474.616375,18.8306654 474.616375,17.0066563 C474.616375,15.2786476 473.956382,14.0186602 472.636375,13.2266563 Z M473.896375,32.8466563 C472.312367,32.0306522 470.200388,31.6226563 467.560375,31.6226563 L460.720375,31.6226563 L460.720375,43.2866563 L467.632375,43.2866563 C468.59238,43.2866563 469.58837,43.2026571 470.620375,43.0346563 C471.65238,42.8666554 472.588371,42.5666584 473.428375,42.1346563 C474.268379,41.7026541 474.952372,41.0906602 475.480375,40.2986563 C476.008378,39.5066523 476.272375,38.4866625 476.272375,37.2386563 C476.272375,35.1266457 475.480383,33.6626603 473.896375,32.8466563 Z M579.828375,39.1466563 C578.172367,42.3866724 575.988389,45.0506458 573.276375,47.1386562 C570.564361,49.2266667 567.504392,50.7626513 564.096375,51.7466563 C560.688358,52.7306612 557.232393,53.2226562 553.728375,53.2226562 L534.720375,53.2226562 L534.720375,2.24665625 L553.152375,2.24665625 C556.752393,2.24665625 560.304357,2.66665205 563.808375,3.50665625 C567.312393,4.34666045 570.432361,5.73864653 573.168375,7.68265625 C575.904389,9.62666597 578.112367,12.2306399 579.792375,15.4946562 C581.472383,18.7586726 582.312375,22.7906323 582.312375,27.5906562 C582.312375,32.0546786 581.484383,35.90664 579.828375,39.1466563 Z M568.092375,20.4266562 C567.15637,18.5306468 565.908383,17.0186619 564.348375,15.8906562 C562.788367,14.7626506 561.012385,13.9586587 559.020375,13.4786563 C557.028365,12.9986538 554.976386,12.7586563 552.864375,12.7586563 L546.744375,12.7586563 L546.744375,42.5666562 L552.576375,42.5666562 C554.784386,42.5666562 556.908365,42.3146588 558.948375,41.8106562 C560.988385,41.3066537 562.788367,40.478662 564.348375,39.3266562 C565.908383,38.1746505 567.15637,36.6386658 568.092375,34.7186562 C569.02838,32.7986466 569.496375,30.4226704 569.496375,27.5906562 C569.496375,24.7106419 569.02838,22.3226657 568.092375,20.4266562 Z M600.448375,53.2226562 L600.448375,2.24665625 L634.720375,2.24665625 L634.720375,12.6866562 L612.328375,12.6866562 L612.328375,22.2626562 L633.496375,22.2626562 L633.496375,32.1266562 L612.328375,32.1266562 L612.328375,42.7106562 L636.016375,42.7106562 L636.016375,53.2226562 L600.448375,53.2226562 Z M681.080375,15.4946563 C680.02437,14.1506495 678.644384,13.0826602 676.940375,12.2906563 C675.236366,11.4986523 673.592383,11.1026563 672.008375,11.1026563 C671.192371,11.1026563 670.364379,11.1746555 669.524375,11.3186563 C668.684371,11.462657 667.928378,11.7386542 667.256375,12.1466563 C666.584372,12.5546583 666.020377,13.082653 665.564375,13.7306563 C665.108373,14.3786595 664.880375,15.2066512 664.880375,16.2146563 C664.880375,17.0786606 665.060373,17.7986534 665.420375,18.3746563 C665.780377,18.9506591 666.308372,19.4546541 667.004375,19.8866563 C667.700378,20.3186584 668.52837,20.7146545 669.488375,21.0746563 C670.44838,21.4346581 671.528369,21.8066543 672.728375,22.1906563 C674.456384,22.7666591 676.256366,23.4026528 678.128375,24.0986563 C680.000384,24.7946597 681.704367,25.7186505 683.240375,26.8706563 C684.776383,28.022662 686.04837,29.4506477 687.056375,31.1546563 C688.06438,32.8586648 688.568375,34.9826435 688.568375,37.5266563 C688.568375,40.4546709 688.02838,42.9866456 686.948375,45.1226563 C685.86837,47.2586669 684.416384,49.0226493 682.592375,50.4146563 C680.768366,51.8066632 678.680387,52.8386529 676.328375,53.5106563 C673.976363,54.1826596 671.552387,54.5186563 669.056375,54.5186563 C665.408357,54.5186563 661.880392,53.8826626 658.472375,52.6106563 C655.064358,51.3386499 652.232386,49.526668 649.976375,47.1746563 L658.040375,38.9666563 C659.288381,40.5026639 660.932365,41.7866511 662.972375,42.8186563 C665.012385,43.8506614 667.040365,44.3666563 669.056375,44.3666563 C669.96838,44.3666563 670.856371,44.2706572 671.720375,44.0786563 C672.584379,43.8866553 673.340372,43.5746584 673.988375,43.1426563 C674.636378,42.7106541 675.152373,42.1346599 675.536375,41.4146563 C675.920377,40.6946527 676.112375,39.8306613 676.112375,38.8226563 C676.112375,37.8626515 675.872377,37.0466596 675.392375,36.3746563 C674.912373,35.7026529 674.228379,35.090659 673.340375,34.5386563 C672.452371,33.9866535 671.348382,33.4826585 670.028375,33.0266563 C668.708368,32.570654 667.208383,32.0786589 665.528375,31.5506563 C663.896367,31.0226536 662.300383,30.3986599 660.740375,29.6786563 C659.180367,28.9586527 657.788381,28.0346619 656.564375,26.9066563 C655.340369,25.7786506 654.356379,24.4106643 653.612375,22.8026563 C652.868371,21.1946482 652.496375,19.2386678 652.496375,16.9346563 C652.496375,14.1026421 653.072369,11.6786663 654.224375,9.66265625 C655.376381,7.64664617 656.888366,5.99066273 658.760375,4.69465625 C660.632384,3.39864977 662.744363,2.45065925 665.096375,1.85065625 C667.448387,1.25065325 669.824363,0.95065625 672.224375,0.95065625 C675.104389,0.95065625 678.04436,1.47865097 681.044375,2.53465625 C684.04439,3.59066153 686.672364,5.15064593 688.928375,7.21465625 L681.080375,15.4946563 Z M706.704375,53.2226562 L706.704375,2.24665625 L719.088375,2.24665625 L719.088375,53.2226562 L706.704375,53.2226562 Z M784.888375,50.1266563 C782.392363,51.4226627 779.476392,52.4786522 776.140375,53.2946563 C772.804358,54.1106603 769.168395,54.5186563 765.232375,54.5186563 C761.152355,54.5186563 757.396392,53.8706627 753.964375,52.5746563 C750.532358,51.2786498 747.580387,49.454668 745.108375,47.1026563 C742.636363,44.7506445 740.704382,41.9306727 739.312375,38.6426563 C737.920368,35.3546398 737.224375,31.6946764 737.224375,27.6626563 C737.224375,23.5826359 737.932368,19.8866728 739.348375,16.5746563 C740.764382,13.2626397 742.720363,10.4426679 745.216375,8.11465625 C747.712387,5.78664461 750.640358,3.99866249 754.000375,2.75065625 C757.360392,1.50265001 760.984356,0.87865625 764.872375,0.87865625 C768.904395,0.87865625 772.648358,1.49065013 776.104375,2.71465625 C779.560392,3.93866237 782.368364,5.58264593 784.528375,7.64665625 L776.752375,16.5026563 C775.552369,15.1106493 773.968385,13.9706607 772.000375,13.0826562 C770.032365,12.1946518 767.800387,11.7506563 765.304375,11.7506563 C763.144364,11.7506563 761.152384,12.1466523 759.328375,12.9386563 C757.504366,13.7306602 755.920382,14.8346492 754.576375,16.2506563 C753.232368,17.6666633 752.188379,19.3466465 751.444375,21.2906563 C750.700371,23.234666 750.328375,25.3586447 750.328375,27.6626563 C750.328375,30.014668 750.664372,32.1746464 751.336375,34.1426563 C752.008378,36.1106661 753.004368,37.8026492 754.324375,39.2186563 C755.644382,40.6346633 757.276365,41.7386523 759.220375,42.5306563 C761.164385,43.3226602 763.384363,43.7186563 765.880375,43.7186563 C767.320382,43.7186563 768.688369,43.6106573 769.984375,43.3946563 C771.280381,43.1786552 772.480369,42.8306587 773.584375,42.3506563 L773.584375,33.0626563 L763.864375,33.0626563 L763.864375,23.1266563 L784.888375,23.1266563 L784.888375,50.1266563 Z M837.368375,53.2226562 L816.848375,19.8866562 L816.632375,19.8866562 L816.920375,53.2226562 L804.968375,53.2226562 L804.968375,2.24665625 L819.008375,2.24665625 L839.456375,35.5106562 L839.672375,35.5106562 L839.384375,2.24665625 L851.336375,2.24665625 L851.336375,53.2226562 L837.368375,53.2226562 Z" id="HELLO-WEB-DESIGN" fill="#FFFFFF"></path>
    </g>
</svg>